<svg width="126" height="53" viewBox="0 0 126 53" fill="none" xmlns="http://www.w3.org/2000/svg">
<g filter="url(#filter0_d_2477_7572)">
<path d="M5 45C4.44772 45 4 44.5523 4 44C4 43.4477 4.44772 43 5 43V45ZM121.134 0.969517L121.03 9.13383L112.866 9.03048L112.97 0.866171L121.134 0.969517ZM81.6605 39.456L82.3586 40.172L81.6605 39.456ZM5 43H70.4909V45H5V43ZM80.9624 38.74L116.302 4.284L117.698 5.716L82.3586 40.172L80.9624 38.74ZM70.4909 43C74.4034 43 78.1611 41.4713 80.9624 38.74L82.3586 40.172C79.1838 43.2675 74.9251 45 70.4909 45V43Z" fill="#00FF97"/>
</g>
<defs>
<filter id="filter0_d_2477_7572" x="0" y="0.86615" width="125.134" height="52.1339" filterUnits="userSpaceOnUse" color-interpolation-filters="sRGB">
<feFlood flood-opacity="0" result="BackgroundImageFix"/>
<feColorMatrix in="SourceAlpha" type="matrix" values="0 0 0 0 0 0 0 0 0 0 0 0 0 0 0 0 0 0 127 0" result="hardAlpha"/>
<feOffset dy="4"/>
<feGaussianBlur stdDeviation="2"/>
<feComposite in2="hardAlpha" operator="out"/>
<feColorMatrix type="matrix" values="0 0 0 0 0 0 0 0 0 0 0 0 0 0 0 0 0 0 0.25 0"/>
<feBlend mode="normal" in2="BackgroundImageFix" result="effect1_dropShadow_2477_7572"/>
<feBlend mode="normal" in="SourceGraphic" in2="effect1_dropShadow_2477_7572" result="shape"/>
</filter>
</defs>
</svg>
