<svg width="141" height="198" viewBox="0 0 141 198" fill="none" xmlns="http://www.w3.org/2000/svg">
<g clip-path="url(#clip0_53_48357)">
<path d="M140.84 32.1364L70.5005 73.7064V0.156433L140.84 32.1364Z" fill="#069B96"/>
<path d="M70.5004 0.156433V73.7164L0.150391 32.1364L70.5004 0.156433Z" fill="#70C282"/>
<path d="M140.88 45.4664L70.4904 87.0264L69.6304 88.0864V121.496L70.4904 124.026H70.5004V148.826V197.136L140.82 132.936L140.88 132.926V45.4664Z" fill="#056D69"/>
<path d="M70.5004 123.576V87.0264L0.150391 45.4664L0.160391 45.4764L0.150391 45.4664V132.926L27.3804 157.776L70.5004 197.136V123.576Z" fill="#4DBA7A"/>
<path d="M70.4904 124.026V87.0264L0.150391 45.4664L70.4904 124.026Z" fill="#7AC799"/>
<path d="M70.4905 87.0264V124.026L140.88 45.4664L70.4905 87.0264Z" fill="#00A69F"/>
</g>
<defs>
<clipPath id="clip0_53_48357">
<rect width="140.73" height="196.98" fill="white" transform="translate(0.150391 0.156433)"/>
</clipPath>
</defs>
</svg>
