<svg width="37" height="34" viewBox="0 0 37 34" fill="none" xmlns="http://www.w3.org/2000/svg">
<path d="M1 6.80631L3.1987 1L5.21048 6.80631L4.55175 4.90911L1.72993 4.87381M7.87236 6.10113H9.30552C10.0622 6.10113 10.6764 5.49227 10.6764 4.74221C10.6764 3.99216 10.0622 3.38329 9.30552 3.38329H7.87236V8.65132M13.196 6.10113H14.6291C15.3858 6.10113 16 5.49227 16 4.74221C16 3.99216 15.3858 3.38329 14.6291 3.38329H13.196V8.65132" stroke="#00D67F" stroke-linecap="round" stroke-linejoin="round"/>
<path d="M10.3901 20.994L14.1665 31.4464C14.1665 31.4464 14.6386 32.4244 15.1442 32.4244C15.6497 32.4244 23.1693 24.6016 23.1693 24.6016L31.5312 8.45068L10.5249 18.2959L10.3901 20.994Z" fill="url(#paint0_linear_2694_6577)"/>
<path d="M15.3944 23.6748L14.6694 31.3792C14.6694 31.3792 14.366 33.7399 16.7262 31.3792C19.0863 29.0185 21.3455 27.1981 21.3455 27.1981" fill="url(#paint1_linear_2694_6577)"/>
<path d="M10.4568 21.3666L2.68874 18.8356C2.68874 18.8356 1.76037 18.4589 2.05931 17.6048C2.12084 17.4287 2.24498 17.2788 2.61633 17.0213C4.33752 15.8215 34.4742 4.9896 34.4742 4.9896C34.4742 4.9896 35.3251 4.70287 35.827 4.89358C35.9511 4.93201 36.0629 5.00273 36.1507 5.0985C36.2386 5.19428 36.2994 5.31167 36.327 5.43866C36.3812 5.66298 36.4039 5.89375 36.3944 6.12433C36.392 6.3238 36.3678 6.50868 36.3495 6.79859C36.166 9.76009 30.6732 31.8627 30.6732 31.8627C30.6732 31.8627 30.3446 33.156 29.1671 33.2003C28.8778 33.2097 28.5895 33.1607 28.3195 33.0562C28.0495 32.9518 27.8033 32.794 27.5956 32.5924C25.285 30.6049 17.2989 25.2379 15.5342 24.0575C15.4944 24.0304 15.4609 23.995 15.4359 23.9538C15.4109 23.9127 15.395 23.8666 15.3894 23.8188C15.3647 23.6944 15.5 23.5403 15.5 23.5403C15.5 23.5403 29.4059 11.1797 29.7759 9.8821C29.8045 9.78157 29.6963 9.73197 29.551 9.77601C28.6274 10.1158 12.6165 20.2268 10.8494 21.3427C10.7222 21.3812 10.5877 21.3893 10.4568 21.3666Z" fill="#01F697"/>
<path d="M10.4568 21.3666L2.68874 18.8356C2.68874 18.8356 1.76037 18.4589 2.05931 17.6048C2.12084 17.4287 2.24498 17.2788 2.61633 17.0213C4.33752 15.8215 34.4742 4.9896 34.4742 4.9896C34.4742 4.9896 35.3251 4.70287 35.827 4.89358C35.9511 4.93201 36.0629 5.00273 36.1507 5.0985C36.2386 5.19428 36.2994 5.31167 36.327 5.43866C36.3812 5.66298 36.4039 5.89375 36.3944 6.12433C36.392 6.3238 36.3678 6.50868 36.3495 6.79859C36.166 9.76009 30.6732 31.8627 30.6732 31.8627C30.6732 31.8627 30.3446 33.156 29.1671 33.2003C28.8778 33.2097 28.5895 33.1607 28.3195 33.0562C28.0495 32.9518 27.8033 32.794 27.5956 32.5924C25.285 30.6049 17.2989 25.2379 15.5342 24.0575C15.4944 24.0304 15.4609 23.995 15.4359 23.9538C15.4109 23.9127 15.395 23.8666 15.3894 23.8188C15.3647 23.6944 15.5 23.5403 15.5 23.5403C15.5 23.5403 29.4059 11.1797 29.7759 9.8821C29.8045 9.78157 29.6963 9.73197 29.551 9.77601C28.6274 10.1158 12.6165 20.2268 10.8494 21.3427C10.7222 21.3812 10.5877 21.3893 10.4568 21.3666Z" fill="url(#paint2_linear_2694_6577)"/>
<defs>
<linearGradient id="paint0_linear_2694_6577" x1="14.7061" y1="14.6887" x2="23.3267" y2="20.5241" gradientUnits="userSpaceOnUse">
<stop stop-color="#009B95"/>
<stop offset="1" stop-color="#003533"/>
</linearGradient>
<linearGradient id="paint1_linear_2694_6577" x1="18.019" y1="26.7573" x2="16.0296" y2="32.4601" gradientUnits="userSpaceOnUse">
<stop stop-color="#006C68"/>
<stop offset="1" stop-color="#01A596"/>
</linearGradient>
<linearGradient id="paint2_linear_2694_6577" x1="32.6087" y1="8.71982" x2="12.7116" y2="24.7938" gradientUnits="userSpaceOnUse">
<stop stop-color="#00FF97"/>
<stop offset="1" stop-color="#009B95"/>
</linearGradient>
</defs>
</svg>
