<svg width="651" height="68" viewBox="0 0 651 68" fill="none" xmlns="http://www.w3.org/2000/svg">
<path d="M0.226493 6L5.99999 0.226494L11.7735 6L5.99999 11.7735L0.226493 6ZM118.769 62.0166L118.043 62.7051L118.769 62.0166ZM70.3154 10.9834L71.0406 10.2949L70.3154 10.9834ZM58.7122 7L5.99999 7L5.99999 5L58.7122 5L58.7122 7ZM651 68L130.372 68L130.372 66L651 66L651 68ZM118.043 62.7051L69.5901 11.6719L71.0406 10.2949L119.494 61.3281L118.043 62.7051ZM130.372 68C125.71 68 121.253 66.0857 118.043 62.7051L119.494 61.3281C122.326 64.311 126.259 66 130.372 66L130.372 68ZM58.7122 5C63.3738 5 67.8309 6.91425 71.0406 10.2949L69.5901 11.6719C66.7581 8.68904 62.8254 7 58.7122 7L58.7122 5Z" fill="url(#paint0_linear_1841_66840)"/>
<defs>
<linearGradient id="paint0_linear_1841_66840" x1="35.0676" y1="56.288" x2="139.059" y2="56.288" gradientUnits="userSpaceOnUse">
<stop stop-color="#00FF97"/>
<stop offset="1" stop-color="#009B95"/>
</linearGradient>
</defs>
</svg>
