<svg width="92" height="22" viewBox="0 0 92 22" fill="none" xmlns="http://www.w3.org/2000/svg">
<g clip-path="url(#clip0_436_1455)">
<path d="M72.0159 10.6165C72.0159 10.0808 72.0159 9.57685 71.9986 9.11148C71.9868 8.67245 71.9433 8.23484 71.8685 7.80207C71.7985 7.4069 71.675 7.0231 71.5014 6.66128C71.3181 6.28824 71.0731 5.94881 70.7768 5.65731C70.3566 5.22675 69.8566 4.88214 69.3046 4.64274C68.7075 4.40087 68.068 4.28097 67.4239 4.2901C66.7772 4.28175 66.1354 4.4016 65.5354 4.64274C64.9803 4.87887 64.4771 5.22198 64.0545 5.6525C63.7587 5.94382 63.5147 6.28332 63.3328 6.65647C63.1606 7.01836 63.0391 7.40222 62.9715 7.79726C62.8984 8.23015 62.8565 8.66775 62.8462 9.10666C62.8347 9.57203 62.8289 10.0759 62.8318 10.6117C62.8347 11.1474 62.8318 11.6474 62.8462 12.1157C62.8565 12.5546 62.8984 12.9922 62.9715 13.4251C63.0391 13.8201 63.1606 14.204 63.3328 14.5659C63.5154 14.9386 63.7594 15.278 64.0545 15.5698C64.4764 16.0007 64.9798 16.3433 65.5354 16.5777C66.135 16.8204 66.777 16.9409 67.4239 16.9322C68.0682 16.9417 68.7079 16.8211 69.3046 16.5777C69.8567 16.3415 70.3569 15.999 70.7768 15.5698C71.0725 15.2778 71.3174 14.9385 71.5014 14.5659C71.675 14.2041 71.7985 13.8203 71.8685 13.4251C71.9425 12.9935 71.9853 12.5572 71.9966 12.1195C72.0111 11.6513 72.0178 11.1503 72.014 10.6155L72.0159 10.6165ZM69.5879 10.6165C69.5879 11.21 69.5792 11.7043 69.559 12.0974C69.5476 12.4203 69.5154 12.7421 69.4626 13.0609C69.4265 13.2733 69.3617 13.4797 69.2699 13.6746C69.1954 13.8317 69.098 13.9769 68.9809 14.1053C68.8 14.3124 68.5756 14.4769 68.3238 14.5871C68.0403 14.7083 67.735 14.77 67.4267 14.7682C67.117 14.7696 66.8101 14.7079 66.5249 14.5871C66.2669 14.4789 66.0364 14.3143 65.8505 14.1053C65.7326 13.9774 65.6351 13.8322 65.5614 13.6746C65.4722 13.4795 65.4106 13.273 65.3783 13.0609C65.3269 12.7419 65.2947 12.4202 65.282 12.0974C65.2646 11.7043 65.256 11.2106 65.256 10.6165C65.256 10.0229 65.2646 9.52771 65.282 9.1346C65.2948 8.81179 65.3269 8.49004 65.3783 8.1711C65.4106 7.95901 65.4722 7.75245 65.5614 7.55734C65.6353 7.39992 65.7328 7.25469 65.8505 7.12666C66.0367 6.91797 66.2671 6.75339 66.5249 6.64491C66.8097 6.52266 67.1168 6.46097 67.4267 6.46377C67.7351 6.46056 68.0408 6.52228 68.3238 6.64491C68.5754 6.75544 68.7998 6.91989 68.9809 7.12666C69.0978 7.25527 69.1952 7.40039 69.2699 7.55734C69.3617 7.75225 69.4265 7.95872 69.4626 8.1711C69.5154 8.48987 69.5475 8.8117 69.559 9.1346C69.5802 9.52675 69.5879 10.022 69.5879 10.6165Z" fill="black"/>
<path d="M91.3632 4.61192C91.3621 4.49476 91.2674 4.40004 91.1503 4.39899H89.1471C89.0297 4.39952 88.9347 4.49454 88.9342 4.61192V12.0116L84.0492 4.45873C84.0165 4.40766 83.9876 4.39899 83.9153 4.39899H82.0577C81.9407 4.40055 81.8463 4.49498 81.8447 4.61192V16.6191C81.8463 16.7359 81.9409 16.83 82.0577 16.8311H84.0598C84.1767 16.8306 84.2713 16.736 84.2718 16.6191V9.20013L89.1577 16.7704C89.1914 16.8215 89.2184 16.8301 89.2917 16.8301H91.1483C91.2653 16.8296 91.3602 16.7352 91.3613 16.6182L91.3632 4.61192Z" fill="black"/>
<path d="M77.9359 4.61192C77.9353 4.49454 77.8403 4.39952 77.7229 4.39899H75.7217C75.6043 4.39952 75.5093 4.49454 75.5088 4.61192V16.6182C75.5093 16.7355 75.6043 16.8306 75.7217 16.8311H77.7229C77.8403 16.8306 77.9353 16.7355 77.9359 16.6182V4.61192Z" fill="black"/>
<path d="M53.9794 10.6157C53.9794 10.0183 53.9861 9.52113 54.0035 9.12513C54.0152 8.80225 54.0474 8.48044 54.0998 8.16163C54.2848 7.09214 55.1038 6.46104 56.1492 6.46104C56.8313 6.46682 57.4499 6.71926 57.8449 7.29351C58.0238 7.5616 58.1543 7.85902 58.2303 8.17223C58.2362 8.20522 58.2663 8.22824 58.2997 8.22522H60.6555C60.6892 8.22522 60.7017 8.20209 60.6959 8.16933C60.4387 6.71155 59.6611 5.40215 58.2872 4.75371C57.6119 4.44107 56.8749 4.28463 56.1309 4.29605C54.8044 4.29605 53.6871 4.75018 52.7788 5.65844C52.2603 6.16383 51.9063 6.81396 51.7633 7.52379C51.6246 8.22265 51.5545 9.25296 51.5532 10.6147C51.552 11.9765 51.622 13.0065 51.7633 13.7047C51.9051 14.4154 52.2581 15.0669 52.7759 15.5739C53.6836 16.4815 54.8009 16.9353 56.128 16.9353C56.8719 16.9466 57.6088 16.7905 58.2843 16.4786C59.6583 15.8302 60.4358 14.5208 60.6931 13.063C60.6988 13.0293 60.6863 13.0071 60.6526 13.0071H58.2959C58.2624 13.0036 58.2319 13.0268 58.2265 13.0601C58.1503 13.3729 58.0198 13.67 57.8411 13.9378C57.4461 14.5159 56.8275 14.7655 56.1453 14.7703C55.0999 14.7703 54.2809 14.1402 54.0959 13.0707C54.0436 12.7519 54.0114 12.4301 53.9996 12.1072C53.9861 11.7093 53.9794 11.2111 53.9794 10.6157Z" fill="black"/>
<path d="M29.098 4.61192C29.0974 4.49454 29.0024 4.39952 28.885 4.39899H26.8838C26.7665 4.39952 26.6714 4.49454 26.6709 4.61192V16.6191C26.672 16.7361 26.7668 16.8306 26.8838 16.8312H28.885C29.002 16.8306 29.0969 16.7361 29.098 16.6191V13.0946L30.7041 11.1744L34.0032 16.7675C34.0286 16.8087 34.0742 16.8331 34.1226 16.8312H36.5545C36.6663 16.8312 36.6865 16.7617 36.6306 16.6663L32.3113 9.34369L36.2741 4.58976C36.3541 4.49341 36.3204 4.40188 36.1951 4.40188H33.5368C33.5045 4.39998 33.4734 4.41446 33.454 4.44042L29.098 9.66454V4.61192Z" fill="black"/>
<path d="M43.6777 14.7711C42.5514 14.7711 41.5301 13.7286 41.5301 12.4838V4.61192C41.5296 4.49454 41.4345 4.39952 41.3172 4.39899H39.316C39.1986 4.39952 39.1036 4.49454 39.103 4.61192V12.4529C39.103 15.1941 41.1534 16.9361 43.6777 16.9361C46.2021 16.9361 48.2525 15.1941 48.2525 12.4529V4.61192C48.2514 4.49476 48.1567 4.40004 48.0395 4.39899H46.0374C45.9204 4.40004 45.8259 4.49492 45.8254 4.61192V12.4838C45.8254 13.7276 44.8031 14.7711 43.6777 14.7711Z" fill="black"/>
<path fill-rule="evenodd" clip-rule="evenodd" d="M6.55466 10.6157L12.7673 16.8294L16.6888 12.9079C17.39 12.2765 18.4628 12.3046 19.13 12.9718C19.7972 13.639 19.8253 14.7118 19.1939 15.413L14.0189 20.589C13.3238 21.2726 12.2089 21.2726 11.5138 20.589L4.04762 13.1209V17.5597C4.04762 18.5394 3.25346 19.3335 2.27381 19.3335C1.29416 19.3335 0.5 18.5394 0.5 17.5597V3.66599C0.5 2.68634 1.29416 1.89218 2.27381 1.89218C3.25346 1.89218 4.04762 2.68634 4.04762 3.66599V8.10485L11.5129 0.638656C12.2078 -0.0454862 13.3231 -0.0454862 14.018 0.638656L19.1968 5.81364C19.8282 6.51485 19.8001 7.58763 19.1329 8.25484C18.4657 8.92204 17.3929 8.95013 16.6917 8.31875L12.7702 4.39729L6.55466 10.6157ZM12.7702 8.84001C12.0519 8.83962 11.4041 9.27202 11.129 9.93553C10.8538 10.5991 11.0055 11.363 11.5133 11.871C12.0211 12.3791 12.7849 12.5312 13.4486 12.2564C14.1123 11.9816 14.545 11.3341 14.545 10.6157C14.5453 10.1448 14.3584 9.69302 14.0256 9.35983C13.6927 9.02663 13.2412 8.84027 12.7702 8.84001Z" fill="black"/>
</g>
<defs>
<clipPath id="clip0_436_1455">
<rect width="91" height="21" fill="black" transform="translate(0.5 0.123596)"/>
</clipPath>
</defs>
</svg>
