<svg width="155" height="25" viewBox="0 0 155 25" fill="none" xmlns="http://www.w3.org/2000/svg">
<mask id="mask0_436_1475" style="mask-type:luminance" maskUnits="userSpaceOnUse" x="0" y="0" width="154" height="25">
<path d="M153.798 0.725159H0.666748V24.5222H153.798V0.725159Z" fill="white"/>
</mask>
<g mask="url(#mask0_436_1475)">
<path d="M29.9074 19.0699C29.5504 19.0699 29.2976 18.9956 29.1502 18.8483C29.0148 18.7009 28.9465 18.4672 28.9465 18.1461V7.45599C28.9465 7.13608 29.0208 6.90243 29.1681 6.75386C29.3155 6.5933 29.5623 6.51422 29.9062 6.51422H34.4293C36.1523 6.51422 37.42 6.87727 38.2324 7.60337C39.0447 8.32946 39.4509 9.41262 39.4509 10.8528C39.4509 12.293 39.0447 13.3582 38.2324 14.0843C37.432 14.7984 36.1643 15.1555 34.4293 15.1555H32.6752V18.1461C32.6752 18.4661 32.6009 18.6997 32.4536 18.8483C32.3062 18.9956 32.0534 19.0699 31.6963 19.0699H29.905H29.9074ZM34.1358 12.4788C34.6402 12.4788 35.0284 12.3434 35.2992 12.0726C35.582 11.8018 35.7234 11.3956 35.7234 10.854C35.7234 10.3125 35.582 9.88829 35.2992 9.61751C35.0284 9.34672 34.6402 9.21132 34.1358 9.21132H32.6776V12.4788H34.1358Z" fill="black"/>
<path d="M43.8132 19.3475C42.6558 19.3475 41.7272 18.9784 41.025 18.2404C40.3361 17.4891 39.991 16.4371 39.991 15.0832C39.991 14.0491 40.2247 13.1445 40.692 12.3693C41.1724 11.5941 41.8434 10.9974 42.7049 10.578C43.5784 10.1467 44.5824 9.93219 45.7147 9.93219C46.6505 9.93219 47.4748 10.0364 48.189 10.2461C48.915 10.4426 49.58 10.7326 50.1827 11.1136V18.4992C50.1827 18.7328 50.1396 18.8874 50.0533 18.9605C49.967 19.0348 49.7945 19.0707 49.5369 19.0707H47.6534C47.518 19.0707 47.4137 19.0527 47.3394 19.0156C47.2652 18.9665 47.204 18.8922 47.1549 18.7939L46.9153 18.2404C46.5582 18.6214 46.1281 18.8994 45.6225 19.0707C45.13 19.2552 44.5273 19.3475 43.8132 19.3475ZM45.1983 16.8361C45.6788 16.8361 46.0538 16.7187 46.3246 16.485C46.5954 16.2514 46.7308 15.9183 46.7308 15.4881V12.6077C46.4971 12.4975 46.2012 12.4412 45.8441 12.4412C45.1911 12.4412 44.6687 12.6688 44.2745 13.1241C43.8935 13.5794 43.7018 14.2193 43.7018 15.0448C43.7018 16.2394 44.2002 16.8361 45.1971 16.8361H45.1983Z" fill="black"/>
<path d="M52.7526 19.0699C52.3956 19.0699 52.1428 18.9957 51.9954 18.8483C51.848 18.7009 51.7737 18.4673 51.7737 18.1461V10.7797C51.7737 10.5581 51.8109 10.4107 51.884 10.3364C51.9702 10.2501 52.1428 10.207 52.4016 10.207H54.3031C54.4505 10.207 54.5619 10.2322 54.635 10.2813C54.7213 10.3184 54.7704 10.3915 54.7824 10.503L54.8746 11.0565C55.2197 10.7115 55.669 10.4407 56.2226 10.2442C56.7893 10.0345 57.416 9.93024 58.1061 9.93024C59.103 9.93024 59.9094 10.213 60.5252 10.7797C61.1411 11.3333 61.4478 12.1589 61.4478 13.254V18.1473C61.4478 18.4673 61.3735 18.7009 61.2262 18.8495C61.0908 18.9969 60.8451 19.0711 60.4881 19.0711H58.6968C58.3398 19.0711 58.0809 18.9969 57.9216 18.8495C57.7742 18.7021 57.6999 18.4685 57.6999 18.1473V13.4948C57.6999 13.1258 57.6196 12.861 57.4603 12.7004C57.2997 12.5399 57.0481 12.4608 56.703 12.4608C56.334 12.4608 56.038 12.559 55.8164 12.7567C55.6067 12.9532 55.5025 13.224 55.5025 13.5691V18.1485C55.5025 18.4685 55.4282 18.7021 55.2808 18.8507C55.1454 18.9981 54.8998 19.0723 54.5427 19.0723H52.7514L52.7526 19.0699Z" fill="black"/>
<path d="M67.9758 19.3467C66.2528 19.3467 64.9228 18.9465 63.9882 18.1461C63.0524 17.3458 62.5852 16.1823 62.5852 14.6571C62.5852 13.7213 62.8008 12.8969 63.231 12.1828C63.6623 11.4687 64.283 10.9151 65.0953 10.5209C65.9197 10.1267 66.8926 9.93024 68.0129 9.93024C68.8624 9.93024 69.5765 10.0105 70.1552 10.1699C70.7459 10.3304 71.2695 10.5761 71.7249 10.908C71.8603 10.9942 71.9285 11.1045 71.9285 11.2398C71.9285 11.3381 71.8794 11.4675 71.7812 11.6281L71.0239 12.9389C70.9377 13.1114 70.8334 13.1977 70.71 13.1977C70.6357 13.1977 70.5195 13.1485 70.3589 13.0503C70.027 12.8406 69.7131 12.6872 69.4172 12.589C69.1344 12.4907 68.7773 12.4416 68.346 12.4416C67.7301 12.4416 67.2317 12.6381 66.8507 13.0323C66.4816 13.4265 66.2971 13.9681 66.2971 14.6571C66.2971 15.346 66.4876 15.9008 66.8698 16.2818C67.2509 16.6508 67.7745 16.8353 68.4395 16.8353C68.8337 16.8353 69.1907 16.7802 69.5106 16.6688C69.8305 16.5586 70.1564 16.404 70.4895 16.2075C70.6621 16.1092 70.7843 16.0601 70.8586 16.0601C70.9688 16.0601 71.0683 16.1464 71.1545 16.3189L71.9849 17.7412C72.046 17.8646 72.0771 17.9628 72.0771 18.0359C72.0771 18.1473 72.0028 18.2516 71.8555 18.3498C71.3378 18.6817 70.7723 18.9286 70.1564 19.0879C69.5538 19.2605 68.8265 19.3467 67.9782 19.3467H67.9758Z" fill="black"/>
<path d="M76.7546 19.3475C75.5972 19.3475 74.6686 18.9784 73.9665 18.2404C73.2775 17.4891 72.9324 16.4371 72.9324 15.0832C72.9324 14.0491 73.1661 13.1445 73.6346 12.3693C74.115 11.5941 74.786 10.9974 75.6475 10.578C76.521 10.1467 77.525 9.93219 78.6573 9.93219C79.5931 9.93219 80.4174 10.0364 81.1316 10.2461C81.8577 10.4426 82.5226 10.7326 83.1253 11.1136V18.4992C83.1253 18.7328 83.0822 18.8874 82.9959 18.9605C82.9097 19.0348 82.7371 19.0707 82.4783 19.0707H80.5948C80.4594 19.0707 80.3551 19.0527 80.2809 19.0156C80.2066 18.9665 80.1455 18.8922 80.0963 18.7939L79.8567 18.2404C79.4996 18.6214 79.0683 18.8994 78.5639 19.0707C78.0714 19.2552 77.4687 19.3475 76.7546 19.3475ZM78.1397 16.8361C78.6202 16.8361 78.9952 16.7187 79.266 16.485C79.5368 16.2514 79.6722 15.9183 79.6722 15.4881V12.6077C79.4385 12.4975 79.1426 12.4412 78.7855 12.4412C78.1337 12.4412 77.6101 12.6688 77.2159 13.1241C76.8349 13.5794 76.6432 14.2193 76.6432 15.0448C76.6432 16.2394 77.1416 16.8361 78.1385 16.8361H78.1397Z" fill="black"/>
<path d="M94.7229 18.3678C94.8092 18.4661 94.8523 18.5775 94.8523 18.6997C94.8523 18.8099 94.8152 18.9022 94.7421 18.9765C94.6678 19.0376 94.5696 19.0687 94.4462 19.0687H91.5849C91.4124 19.0687 91.283 19.0568 91.1967 19.0316C91.1224 18.9944 91.0433 18.9274 90.9571 18.8291L88.4457 15.4131V18.1461C88.4457 18.4661 88.3714 18.6997 88.224 18.8483C88.0766 18.9956 87.8238 19.0699 87.4668 19.0699H85.6755C85.3184 19.0699 85.0668 18.9956 84.9182 18.8483C84.7828 18.7009 84.7146 18.4672 84.7146 18.1461V7.45599C84.7146 7.13608 84.7888 6.90243 84.9362 6.75386C85.0836 6.5933 85.3304 6.51422 85.6743 6.51422H87.4656C87.8226 6.51422 88.0754 6.5945 88.2228 6.75386C88.3702 6.90124 88.4445 7.13488 88.4445 7.45599V13.641L90.8816 10.4658C90.9559 10.3676 91.0349 10.2993 91.1212 10.2621C91.2075 10.225 91.3369 10.207 91.5094 10.207H94.3719C94.4953 10.207 94.5875 10.2442 94.6486 10.3172C94.7229 10.3784 94.7589 10.4646 94.7589 10.5761C94.7589 10.6995 94.7157 10.8097 94.6295 10.9079L91.4723 14.5264L94.7217 18.3666L94.7229 18.3678Z" fill="black"/>
<path d="M100.719 19.3463C99.6846 19.3463 98.7619 19.1737 97.9495 18.8299C97.1492 18.4848 96.5153 17.9684 96.048 17.2794C95.5807 16.5905 95.3459 15.747 95.3459 14.7501C95.3459 13.1864 95.7892 11.9931 96.6759 11.1687C97.5625 10.3444 98.8362 9.93219 100.498 9.93219C102.16 9.93219 103.354 10.3384 104.191 11.1507C105.041 11.9511 105.465 13.0642 105.465 14.4925C105.465 15.1083 105.194 15.4163 104.652 15.4163H98.8542C98.8542 15.9459 99.0507 16.352 99.4449 16.6348C99.8511 16.9176 100.46 17.059 101.272 17.059C101.777 17.059 102.196 17.0158 102.528 16.9296C102.873 16.8313 103.217 16.6899 103.562 16.5054C103.709 16.4443 103.808 16.4131 103.857 16.4131C103.968 16.4131 104.061 16.4874 104.134 16.6348L104.761 17.8162C104.823 17.9396 104.854 18.0319 104.854 18.093C104.854 18.2032 104.779 18.3087 104.632 18.4069C104.128 18.7388 103.555 18.9796 102.915 19.127C102.275 19.2744 101.542 19.3487 100.718 19.3487L100.719 19.3463ZM102.141 13.5854C102.141 13.1182 102.006 12.7539 101.735 12.4963C101.464 12.2375 101.058 12.1081 100.516 12.1081C99.9745 12.1081 99.5623 12.2435 99.2795 12.5143C98.9968 12.7731 98.8554 13.1301 98.8554 13.5854H102.141Z" fill="black"/>
<path d="M111.792 19.3461C110.758 19.3461 109.779 19.2419 108.856 19.0322C107.932 18.8106 107.188 18.5026 106.622 18.1084C106.412 17.973 106.308 17.8317 106.308 17.6843C106.308 17.586 106.345 17.4806 106.418 17.3704L107.322 15.9301C107.421 15.7828 107.519 15.7085 107.618 15.7085C107.68 15.7085 107.785 15.7516 107.932 15.8379C108.388 16.0967 108.904 16.3052 109.483 16.4657C110.062 16.6263 110.633 16.7054 111.2 16.7054C111.767 16.7054 112.203 16.6191 112.473 16.4466C112.756 16.274 112.898 15.9972 112.898 15.6162C112.898 15.2352 112.744 14.9572 112.436 14.7487C112.14 14.5391 111.581 14.2743 110.756 13.9543C109.513 13.4871 108.541 12.9635 107.839 12.3847C107.15 11.794 106.805 10.9936 106.805 9.98478C106.805 8.76624 107.242 7.83645 108.116 7.19662C108.989 6.55679 110.153 6.23688 111.605 6.23688C112.614 6.23688 113.476 6.32914 114.189 6.51366C114.915 6.6862 115.531 6.95699 116.036 7.32603C116.245 7.48658 116.35 7.63396 116.35 7.76935C116.35 7.85562 116.312 7.95387 116.238 8.0653L115.334 9.50551C115.223 9.65289 115.124 9.72717 115.038 9.72717C114.976 9.72717 114.871 9.68404 114.724 9.59777C114.01 9.13048 113.16 8.89564 112.175 8.89564C111.646 8.89564 111.239 8.98191 110.957 9.15445C110.674 9.32698 110.532 9.60975 110.532 10.0039C110.532 10.2747 110.607 10.4964 110.754 10.6689C110.901 10.8415 111.099 10.9948 111.345 11.1302C111.604 11.2537 111.998 11.413 112.526 11.6107L112.877 11.7401C113.788 12.0972 114.502 12.4422 115.02 12.7741C115.549 13.0941 115.949 13.4942 116.22 13.9747C116.491 14.442 116.626 15.0327 116.626 15.7468C116.626 16.842 116.214 17.7166 115.39 18.3684C114.577 19.0202 113.377 19.3473 111.789 19.3473L111.792 19.3461Z" fill="black"/>
<path d="M120.552 19.0705C120.367 19.0705 120.226 19.0394 120.128 18.9782C120.029 18.9171 119.955 18.7937 119.906 18.6092L117.524 10.6329C117.499 10.5587 117.487 10.5035 117.487 10.4664C117.487 10.2939 117.61 10.2076 117.856 10.2076H120.293C120.454 10.2076 120.57 10.2387 120.644 10.2998C120.718 10.349 120.767 10.4352 120.791 10.5587L121.788 14.7499L123.044 11.371C123.106 11.2236 123.167 11.1254 123.228 11.0751C123.303 11.014 123.426 10.9828 123.599 10.9828H124.761C124.933 10.9828 125.051 11.014 125.112 11.0751C125.186 11.1242 125.253 11.2224 125.316 11.371L126.552 14.7499L127.568 10.5587C127.604 10.4352 127.653 10.349 127.716 10.2998C127.777 10.2387 127.888 10.2076 128.048 10.2076H130.504C130.749 10.2076 130.873 10.2939 130.873 10.4664C130.873 10.5035 130.861 10.5587 130.836 10.6329L128.436 18.6092C128.387 18.7937 128.312 18.9171 128.214 18.9782C128.128 19.0394 127.992 19.0705 127.808 19.0705H125.999C125.826 19.0705 125.697 19.0394 125.61 18.9782C125.524 18.904 125.451 18.7817 125.389 18.6092L124.17 15.2675L122.952 18.6092C122.903 18.7817 122.828 18.9052 122.73 18.9782C122.644 19.0394 122.516 19.0705 122.343 19.0705H120.552Z" fill="black"/>
<path d="M135.553 19.3475C134.396 19.3475 133.467 18.9784 132.765 18.2404C132.076 17.4891 131.731 16.4371 131.731 15.0832C131.731 14.0491 131.965 13.1445 132.433 12.3693C132.912 11.5941 133.583 10.9974 134.445 10.578C135.32 10.1467 136.322 9.93219 137.455 9.93219C138.39 9.93219 139.215 10.0364 139.929 10.2461C140.655 10.4426 141.32 10.7326 141.923 11.1136V18.4992C141.923 18.7328 141.88 18.8874 141.793 18.9605C141.707 19.0348 141.536 19.0707 141.277 19.0707H139.393C139.258 19.0707 139.154 19.0527 139.079 19.0156C139.005 18.9665 138.944 18.8922 138.895 18.7939L138.655 18.2404C138.298 18.6214 137.867 18.8994 137.362 19.0707C136.87 19.2552 136.267 19.3475 135.553 19.3475ZM136.938 16.8361C137.418 16.8361 137.794 16.7187 138.065 16.485C138.335 16.2514 138.471 15.9183 138.471 15.4881V12.6077C138.236 12.4975 137.941 12.4412 137.584 12.4412C136.931 12.4412 136.409 12.6688 136.014 13.1241C135.633 13.5794 135.442 14.2193 135.442 15.0448C135.442 16.2394 135.941 16.8361 136.938 16.8361Z" fill="black"/>
<path d="M144.473 22.7972C144.116 22.7972 143.865 22.7229 143.716 22.5755C143.581 22.4281 143.514 22.1945 143.514 21.8734V11.2935C144.067 10.8993 144.763 10.5734 145.6 10.3145C146.437 10.0557 147.311 9.92633 148.221 9.92633C151.939 9.92633 153.798 11.5019 153.798 14.6531C153.798 16.0814 153.403 17.2196 152.616 18.0692C151.828 18.9187 150.715 19.3428 149.275 19.3428C148.868 19.3428 148.474 19.2937 148.092 19.1954C147.723 19.0972 147.415 18.9618 147.169 18.7893V21.8722C147.169 22.1921 147.095 22.4257 146.948 22.5743C146.8 22.7217 146.547 22.796 146.19 22.796H144.473V22.7972ZM148.48 16.8518C149.01 16.8518 149.404 16.6553 149.662 16.2611C149.932 15.8549 150.068 15.3133 150.068 14.6364C150.068 13.836 149.908 13.2764 149.588 12.9565C149.281 12.6246 148.8 12.4581 148.148 12.4581C147.729 12.4581 147.397 12.5132 147.151 12.6246V15.5602C147.151 15.9783 147.268 16.2982 147.501 16.5199C147.736 16.7416 148.062 16.8518 148.48 16.8518Z" fill="black"/>
<path fill-rule="evenodd" clip-rule="evenodd" d="M13.353 22.4803C10.4367 22.4783 8.0868 21.7779 6.44529 20.5211C4.78379 19.2482 3.90259 17.4439 3.90259 15.4007C3.90259 13.3576 4.78179 12.0128 5.77689 11.0536C6.55619 10.3013 7.4174 9.82076 8.01586 9.54301C7.87999 9.12739 7.71114 8.58288 7.56028 8.02039C7.35746 7.26807 7.15964 6.38488 7.15964 5.73846C7.15964 4.97315 7.32649 4.20385 7.77708 3.60639C8.25265 2.97497 8.968 2.63727 9.82922 2.63727C10.5026 2.63727 11.074 2.88705 11.5206 3.31766C11.9482 3.72928 12.233 4.27579 12.4298 4.84627C12.7755 5.84736 12.9094 7.10622 12.9473 8.36208H13.7726C13.8106 7.10622 13.9444 5.84836 14.2901 4.84627C14.4869 4.27679 14.7707 3.72928 15.1993 3.31766C15.6469 2.88705 16.2184 2.63727 16.8908 2.63727C17.752 2.63727 18.4683 2.97497 18.9439 3.60639C19.3935 4.20385 19.5613 4.97315 19.5613 5.73846C19.5613 6.38488 19.3625 7.26807 19.1607 8.02039C19.0099 8.58288 18.84 9.12739 18.7051 9.54301C19.3046 9.81976 20.1648 10.3013 20.9441 11.0536C21.9392 12.0128 22.8184 13.4325 22.8184 15.4007C22.8184 17.3689 21.9372 19.2492 20.2757 20.5211C18.6342 21.7779 16.2843 22.4783 13.368 22.4803H13.353ZM11.1255 14.0082C11.1255 14.9793 10.6709 15.4849 10.1115 15.4849C9.55199 15.4849 9.09741 14.9793 9.09741 14.0082C9.09741 13.0371 9.55199 12.5315 10.1115 12.5315C10.6709 12.5315 11.1255 13.0371 11.1255 14.0082ZM16.7052 15.4849C17.2647 15.4849 17.7193 14.9793 17.7193 14.0082C17.7193 13.0371 17.2647 12.5315 16.7052 12.5315C16.1457 12.5315 15.6911 13.0371 15.6911 14.0082C15.6911 14.9793 16.1457 15.4849 16.7052 15.4849Z" fill="black"/>
</g>
</svg>
