<svg width="95" height="23" viewBox="0 0 95 23" fill="none" xmlns="http://www.w3.org/2000/svg">
<g clip-path="url(#clip0_436_1507)">
<mask id="mask0_436_1507" style="mask-type:luminance" maskUnits="userSpaceOnUse" x="0" y="0" width="94" height="22">
<path d="M93.94 0.623596H0.333252V21.731H93.94V0.623596Z" fill="white"/>
</mask>
<g mask="url(#mask0_436_1507)">
<path fill-rule="evenodd" clip-rule="evenodd" d="M77.8271 6.8926H80.4855V4.27399H77.8271V6.8926ZM63.6972 11.2533C64.2054 9.92691 65.5056 8.98214 67.0314 8.98214C68.5572 8.98214 69.8574 9.92691 70.3657 11.2533H63.6972ZM67.0314 6.54788C63.699 6.54788 60.9966 9.20889 60.9966 12.4911C60.9966 15.7734 63.699 18.4344 67.0314 18.4344C69.3183 18.4344 71.3074 17.1818 72.3315 15.3365L70.1017 14.271C69.4821 15.3052 68.3391 16.0001 67.0314 16.0001C65.3793 16.0001 63.9902 14.8922 63.5867 13.3898H70.4752C70.4752 13.3898 70.4752 13.3926 70.4752 13.3935H72.9979C73.0438 13.0995 73.0672 12.7981 73.0672 12.4911C73.0672 9.20889 70.3648 6.54788 67.0314 6.54788ZM73.7674 18.1173H76.4258V15.4987H73.7674V18.1173ZM77.8271 18.1173H80.4855V8.04383H77.8271V18.1173ZM87.9058 16.0001C85.9381 16.0001 84.3431 14.4295 84.3431 12.4911C84.3431 10.5528 85.9381 8.98214 87.9058 8.98214C89.8734 8.98214 91.4684 10.5528 91.4684 12.4911C91.4684 14.4295 89.8734 16.0001 87.9058 16.0001ZM87.9048 6.54788C84.5724 6.54788 81.87 9.20889 81.87 12.4911C81.87 15.7734 84.5724 18.4344 87.9048 18.4344C91.2372 18.4344 93.9406 15.7743 93.9406 12.4911C93.9406 9.20797 91.2382 6.54788 87.9048 6.54788ZM32.3239 10.3002V13.0073H36.041C35.8473 13.7806 35.4635 14.4738 34.9131 15.0277C34.0828 15.8628 32.9323 16.3237 31.6724 16.3237C29.058 16.3237 26.9312 14.2286 26.9312 11.6542C26.9312 9.07985 29.058 6.98477 31.6724 6.98477C33.0727 6.98477 34.3598 7.57468 35.2519 8.59318L37.3805 6.88062C35.9699 5.25194 33.8759 4.27768 31.6724 4.27768C27.5425 4.27768 24.1829 7.58758 24.1829 11.6551C24.1829 15.7227 27.5434 19.0326 31.6724 19.0326C33.6774 19.0326 35.5262 18.321 36.8779 16.9606C38.0114 15.8186 38.7631 14.2267 38.9082 12.6312C38.9784 11.8533 38.985 11.08 38.9438 10.302H32.3248L32.3239 10.3002ZM45.8641 16.0001C43.8965 16.0001 42.3014 14.4286 42.3014 12.4911C42.3014 10.5537 43.8965 8.98214 45.8641 8.98214C47.8317 8.98214 49.4277 10.5528 49.4277 12.4911C49.4277 14.4295 47.8327 16.0001 45.8641 16.0001ZM49.4277 7.70556C48.4289 6.98477 47.1971 6.55709 45.8641 6.55709C42.5317 6.55709 39.8302 9.2181 39.8302 12.4994C39.8302 15.7808 42.5317 18.4418 45.8641 18.4418C47.1971 18.4418 48.4289 18.015 49.4277 17.2942V18.1164H51.898V6.88246H49.4277V7.70556ZM57.2008 4.27491H54.7306V6.8926H53.2497V9.18861H54.7306V15.1973C54.7306 15.8176 54.8101 16.3402 54.9665 16.7495C55.1209 17.155 55.3577 17.4721 55.6386 17.7201C55.9231 17.9717 56.2582 18.168 56.6542 18.2786C57.0567 18.3902 57.5013 18.4335 57.9712 18.4335C58.4411 18.4335 58.8914 18.3837 59.2611 18.2851C59.6047 18.1938 59.9342 18.0657 60.2403 17.9026V16.0527C59.7526 16.2601 59.2976 16.3356 58.7781 16.3596C58.2296 16.3854 57.9048 16.2306 57.6352 15.9771C57.3525 15.7116 57.2018 15.3651 57.2018 14.7844V9.18861H60.2412V6.8926H57.2018L57.2008 4.27491Z" fill="white"/>
<path fill-rule="evenodd" clip-rule="evenodd" d="M11.0494 16.9765C7.79465 16.9765 5.15587 14.3781 5.15587 11.1724C5.15587 7.96663 7.79465 5.36737 11.0494 5.36737V0.617737C5.1306 0.617737 0.333252 5.34248 0.333252 11.1715C0.333252 17.0004 5.1306 21.7252 11.0494 21.7252C16.9682 21.7252 21.7655 17.0004 21.7655 11.1715H16.9429C16.9429 14.3772 14.3041 16.9765 11.0494 16.9765Z" fill="white"/>
<path fill-rule="evenodd" clip-rule="evenodd" d="M11.0486 11.1738H16.9421V5.36969H11.0486V11.1738Z" fill="white"/>
</g>
</g>
<defs>
<clipPath id="clip0_436_1507">
<rect width="94" height="22" fill="white" transform="translate(0.333252 0.623596)"/>
</clipPath>
</defs>
</svg>
