<svg width="106" height="19" viewBox="0 0 106 19" fill="none" xmlns="http://www.w3.org/2000/svg">
<g clip-path="url(#clip0_436_1465)">
<path d="M29.6612 13.3324L23.3219 2.33945C21.9319 0.049528 18.5474 0.0226669 17.2043 2.43346L10.5562 13.8629C9.31384 15.9581 10.8516 18.5905 13.3363 18.5905H26.6661C29.171 18.5905 31.0513 15.8909 29.6612 13.3324Z" fill="white"/>
<path d="M20.5219 14.1884L20.1324 13.5035C19.7698 12.8722 18.964 11.5023 18.964 11.5023L13.5984 2.1949C12.2151 0.126585 8.92457 -0.0480133 7.5345 2.56425L1.29598 13.3557C0.00664723 15.6255 1.53774 18.5735 4.34474 18.5937H17.6007H23.255H26.6194C23.1812 18.6205 22.0799 16.841 20.5219 14.1884Z" fill="white"/>
<path d="M20.5217 14.1909L20.1322 13.5059C19.7696 12.8747 18.9637 11.5048 18.9637 11.5048L15.4651 5.43414L10.5293 13.8954C9.28699 15.9906 10.8248 18.623 13.3095 18.623H17.5737H23.228H26.6125C23.1541 18.5961 22.0797 16.8435 20.5217 14.1909Z" fill="white"/>
<path d="M61.6572 16.9321V2.33063H73.7922V3.25394C73.7922 3.98599 73.2054 4.57296 72.4729 4.57296H64.6843V8.49703H72.4729V10.7394H64.6843V14.6634H72.4729C73.1984 14.6634 73.7922 15.2504 73.7922 15.9824V16.9057L61.6572 16.9321Z" fill="white"/>
<path d="M91.2228 2.33063H88.3671C87.8329 2.33063 87.3583 2.55486 87.0218 2.97695L83.5723 7.3231L80.1233 3.00992C79.7869 2.58784 79.3123 2.3636 78.7781 2.3636H75.9224L81.7259 9.65118L75.9224 16.9387H78.7781C79.3123 16.9387 79.7869 16.7145 80.1233 16.2924L83.5723 11.9792L87.0484 16.3254C87.3843 16.7145 87.8594 16.9717 88.3936 16.9717H91.2494L85.4458 9.68412L91.2228 2.33063Z" fill="white"/>
<path d="M52.1542 15.3926L56.131 8.44135V16.9028H59.1582V2.30793H57.2786C56.6916 2.30793 56.131 2.6179 55.8475 3.1521L51.0858 11.8378L46.3242 3.1455C46.0406 2.6113 45.48 2.30133 44.893 2.30133H43.02V16.9028H46.0472V8.44135L50.024 15.3926H52.1542Z" fill="white"/>
<path d="M99.129 17.1054C94.928 17.1581 91.505 13.854 91.479 9.65294C91.479 7.35129 92.1779 5.4453 93.4971 4.13288C94.8158 2.84024 96.7218 2.14117 98.9908 2.14117C101.656 2.14117 103.753 3.06448 105.269 4.85834L104.32 5.66955C103.733 6.17075 102.862 6.20374 102.216 5.72887C101.372 5.08257 100.31 4.77261 99.103 4.77261C96.1351 4.77261 94.3672 6.56646 94.3672 9.59361C94.3672 12.6471 96.1876 14.5267 99.103 14.5267C100.336 14.5267 101.372 14.1904 102.216 13.577C102.836 13.1022 103.7 13.1286 104.32 13.6364L105.269 14.4476C103.753 16.2084 101.735 17.1054 99.129 17.1054Z" fill="white"/>
</g>
<defs>
<clipPath id="clip0_436_1465">
<rect width="105" height="18" fill="white" transform="translate(0.833496 0.623596)"/>
</clipPath>
</defs>
</svg>
