<svg width="135" height="32" viewBox="0 0 135 32" fill="none" xmlns="http://www.w3.org/2000/svg">
<g clip-path="url(#clip0_1448_13275)">
<mask id="mask0_1448_13275" style="mask-type:luminance" maskUnits="userSpaceOnUse" x="0" y="0" width="135" height="32">
<path d="M134.244 0H0V32H134.244V0Z" fill="white"/>
</mask>
<g mask="url(#mask0_1448_13275)">
<path fill-rule="evenodd" clip-rule="evenodd" d="M27.6752 4.91263L27.8436 5.93062C27.9763 6.87763 28.0377 7.83327 28.0275 8.7895C28.0264 10.9026 27.7715 13.0079 27.2682 15.0602C26.5876 17.8485 25.4022 20.4885 23.7707 22.8496C21.8853 25.5613 19.1592 28.2284 15.1856 30.3714L14.6995 30.6334L14.2134 30.3714C10.2398 28.2284 7.51485 25.5613 5.62838 22.8496C3.99684 20.4885 2.81144 17.8485 2.13082 15.0602C1.62768 13.0083 1.37276 10.9033 1.37155 8.79062C1.36128 7.83438 1.42277 6.87874 1.55552 5.93173L1.72387 4.91374C1.73824 4.83073 1.73604 4.74568 1.7174 4.66351C1.69876 4.58135 1.66404 4.50369 1.61524 4.435C1.56644 4.36631 1.50454 4.30796 1.43309 4.26331C1.36164 4.21865 1.28207 4.18858 1.19895 4.17483C1.11583 4.16107 1.03081 4.1639 0.948787 4.18316C0.866763 4.20241 0.789366 4.23771 0.721047 4.28701C0.652727 4.33632 0.594841 4.39865 0.550723 4.47043C0.506604 4.54221 0.477126 4.62201 0.463987 4.70524L0.295632 5.72323C0.150822 6.7391 0.0833609 7.7645 0.0938281 8.79062C0.0946305 11.0074 0.361903 13.2161 0.889891 15.3691C1.60861 18.3093 2.85978 21.0929 4.58145 23.5821C6.57162 26.4466 9.4582 29.2631 13.6124 31.4986L14.4018 31.9234C14.4948 31.9737 14.5988 32.0001 14.7045 32.0001C14.8102 32.0001 14.9143 31.9737 15.0072 31.9234L15.7955 31.4986C19.9453 29.262 22.833 26.4466 24.8265 23.5821C26.5473 21.093 27.7977 18.3098 28.5158 15.3702C29.0438 13.2172 29.3111 11.0085 29.3119 8.79174C29.3224 7.76562 29.2548 6.74022 29.1101 5.72435L28.9417 4.70636C28.9286 4.62313 28.8991 4.54333 28.855 4.47155C28.8109 4.39977 28.753 4.33743 28.6847 4.28813C28.6164 4.23882 28.5389 4.20353 28.4569 4.18427C28.3749 4.16501 28.2899 4.16219 28.2068 4.17594C28.1236 4.1897 28.044 4.21977 27.9726 4.26442C27.9012 4.30907 27.8392 4.36742 27.7905 4.43611C27.7417 4.5048 27.707 4.58246 27.6884 4.66463C27.6697 4.7468 27.6675 4.83184 27.6819 4.91486L27.6752 4.91263Z" fill="white"/>
<path fill-rule="evenodd" clip-rule="evenodd" d="M5.21266 4.21913L14.7011 1.32015L24.4013 4.28157C24.5637 4.33012 24.7388 4.31236 24.8881 4.23217C25.0374 4.15199 25.1489 4.01592 25.1981 3.85373C25.2474 3.69153 25.2304 3.51645 25.1508 3.36677C25.0713 3.21709 24.9357 3.10502 24.7737 3.05508L14.8872 0.0368002C14.766 -0.000385207 14.6362 -0.000385207 14.5148 0.0368002L4.83915 2.99041C4.75828 3.01458 4.683 3.05449 4.6176 3.10783C4.55221 3.16118 4.498 3.22692 4.45807 3.30127C4.41815 3.37562 4.39331 3.45713 4.38497 3.54111C4.37663 3.6251 4.38496 3.70989 4.40948 3.79065C4.434 3.87141 4.47423 3.94652 4.52785 4.01169C4.58148 4.07685 4.64744 4.13078 4.72197 4.17039C4.79649 4.20999 4.87811 4.23449 4.96212 4.24247C5.04613 4.25045 5.1309 4.24176 5.21155 4.2169L5.21266 4.21913Z" fill="white"/>
<path fill-rule="evenodd" clip-rule="evenodd" d="M0.52727 5.09998L14.1304 31.6503C14.1835 31.7541 14.2639 31.8414 14.3631 31.9026C14.4622 31.9639 14.5762 31.9968 14.6927 31.9979C14.8092 31.9989 14.9238 31.968 15.024 31.9085C15.1242 31.849 15.2062 31.7631 15.2611 31.6603L23.5567 16.1451L23.569 16.1207L28.8787 5.08214C28.9507 4.92981 28.9596 4.75522 28.9035 4.59634C28.8475 4.43746 28.7311 4.30712 28.5794 4.23366C28.4278 4.16021 28.2533 4.14956 28.0939 4.20405C27.9344 4.25854 27.803 4.37375 27.728 4.52464L22.4272 15.5542L14.718 29.9823L1.66347 4.51572C1.62584 4.44011 1.57359 4.37271 1.50973 4.31744C1.44587 4.26217 1.37168 4.22011 1.29145 4.19372C1.21123 4.16732 1.12656 4.15711 1.04235 4.16367C0.958154 4.17024 0.87609 4.19345 0.800922 4.23195C0.725751 4.27046 0.658971 4.3235 0.604447 4.388C0.549925 4.4525 0.508744 4.52718 0.483291 4.6077C0.457839 4.68824 0.448619 4.77302 0.456168 4.85714C0.463718 4.94126 0.487885 5.02304 0.52727 5.09775V5.09998Z" fill="white"/>
<path fill-rule="evenodd" clip-rule="evenodd" d="M7.03921 16.9239H22.1662C22.3355 16.9239 22.4978 16.8567 22.6176 16.737C22.7373 16.6173 22.8045 16.455 22.8045 16.2856C22.8045 16.1163 22.7373 15.954 22.6176 15.8342C22.4978 15.7146 22.3355 15.6473 22.1662 15.6473H7.03921C6.86991 15.6473 6.70755 15.7146 6.58784 15.8342C6.46814 15.954 6.40088 16.1163 6.40088 16.2856C6.40088 16.455 6.46814 16.6173 6.58784 16.737C6.70755 16.8567 6.86991 16.9239 7.03921 16.9239ZM49.2324 11.4159H39.3916C39.2215 11.4168 39.0586 11.4848 38.9384 11.605C38.8181 11.7253 38.7502 11.8881 38.7493 12.0582V19.9567C38.7505 20.1266 38.8185 20.2894 38.9387 20.4095C39.0589 20.5298 39.2216 20.5978 39.3916 20.599H49.2324V21.9369H39.3916C39.1319 21.9381 38.8746 21.8878 38.6345 21.789C38.3944 21.6902 38.1762 21.5448 37.9926 21.3612C37.809 21.1776 37.6637 20.9594 37.5648 20.7194C37.466 20.4792 37.4157 20.2219 37.4169 19.9623V12.0638C37.4157 11.8041 37.466 11.5468 37.5648 11.3067C37.6637 11.0666 37.809 10.8484 37.9926 10.6648C38.1762 10.4812 38.3944 10.3358 38.6345 10.237C38.8746 10.1382 39.1319 10.0879 39.3916 10.0891H49.2324V11.4159ZM67.711 10.0824V11.4204H58.2337V15.3306H65.8512V16.6798H58.2325V20.5967H67.7099V21.9347H56.8945V10.0824H67.711Z" fill="white"/>
<path d="M87.2268 12.0738V15.5459C87.2284 15.8055 87.178 16.0627 87.0788 16.3027C86.9796 16.5427 86.8348 16.7609 86.6508 16.9444C86.4676 17.128 86.2492 17.2734 86.0092 17.3723C85.7692 17.4711 85.5116 17.5215 85.2524 17.5205H83.4428L87.1612 21.9303H85.4004L81.698 17.5205H77.3494C77.1343 17.5095 76.9199 17.4876 76.7071 17.4547V21.9303H75.3691V10.0991H85.242C85.502 10.0981 85.7588 10.1485 85.9988 10.2474C86.2396 10.3463 86.4572 10.4916 86.6412 10.6752C86.8244 10.8588 86.97 11.0769 87.0684 11.3169C87.1676 11.557 87.218 11.8142 87.2172 12.0738H87.2268ZM77.3539 16.1714H85.2524C85.3348 16.1724 85.4164 16.157 85.4932 16.1259C85.5692 16.0948 85.6388 16.0488 85.6972 15.9905C85.7556 15.9322 85.8012 15.8628 85.8324 15.7865C85.8636 15.7101 85.8788 15.6283 85.878 15.5459V12.0738C85.8788 11.9902 85.8636 11.9071 85.8332 11.8294C85.802 11.7517 85.7556 11.6809 85.6972 11.6211C85.6404 11.5599 85.5716 11.5114 85.4948 11.4787C85.418 11.446 85.3348 11.43 85.2516 11.4315H77.3527C77.1827 11.4324 77.0199 11.5004 76.8995 11.6207C76.7793 11.7409 76.7114 11.9038 76.7105 12.0738V15.5459C76.7087 15.6294 76.7247 15.7123 76.7575 15.7891C76.7901 15.866 76.8387 15.9351 76.9 15.9919C76.9599 16.0504 77.0309 16.0965 77.1088 16.1273C77.1867 16.1582 77.27 16.1731 77.3539 16.1714Z" fill="white"/>
<path fill-rule="evenodd" clip-rule="evenodd" d="M94.3032 10.0824H106.146V11.4204H100.906V21.9358H99.568V11.4204H94.3032V10.0824ZM113.325 21.9302V10.0824H114.663V21.9302H113.325ZM132.446 10.0824H134.158L129.205 16.0063L134.174 21.9302H132.446L128.036 16.6809H124.218V21.9302H122.871V10.0824H124.221V15.3306H128.038L132.446 10.0824Z" fill="white"/>
</g>
</g>
<defs>
<clipPath id="clip0_1448_13275">
<rect width="134.4" height="32" fill="white"/>
</clipPath>
</defs>
</svg>
