<svg width="239" height="51" viewBox="0 0 239 51" fill="none" xmlns="http://www.w3.org/2000/svg">
<path d="M25.5265 6.0348H37.1741C41.7236 6.0348 45.4104 9.68337 45.4104 14.1857V16.623C45.4104 16.9696 45.6943 17.2506 46.0445 17.2506H50.8706C51.2208 17.2506 51.5047 16.9696 51.5047 16.623V11.4675C51.5047 10.4277 51.0881 9.43526 50.3471 8.70189L42.7117 1.14568C41.9669 0.405014 40.9752 1.52588e-05 39.9207 1.52588e-05H25.5265V6.0348Z" fill="white"/>
<path d="M25.5265 44.9652H37.1741C41.7236 44.9652 45.4104 41.3167 45.4104 36.8143V27.6665C45.4104 27.3199 45.6943 27.0389 46.0445 27.0389H50.8706C51.2208 27.0389 51.5047 27.3199 51.5047 27.6665V39.5325C51.5047 40.5724 51.0881 41.5648 50.3471 42.2981L42.7117 49.8543C41.9669 50.595 40.9752 51 39.9207 51H25.5265V44.9652Z" fill="white"/>
<path d="M25.7524 1.52588e-05H11.5839C10.5442 1.52588e-05 9.52671 0.419608 8.79303 1.14568L1.15762 8.70189C0.41657 9.43526 0 10.4277 0 11.4639V25.5H6.09795V14.1857C6.09795 9.68337 9.7848 6.0348 14.3343 6.0348H25.7524V1.52588e-05Z" fill="white"/>
<path d="M25.7524 51H11.5839C10.5442 51 9.52671 50.5804 8.79303 49.8544L1.15762 42.2981C0.41657 41.5648 0 40.5724 0 39.5362V25.2763H6.09795V36.8143C6.09795 41.3167 9.7848 44.9652 14.3343 44.9652H25.7524V51Z" fill="white"/>
<path d="M18.6366 29.5263C20.4456 29.5263 21.9121 28.0241 21.9121 26.171C21.9121 24.318 20.4456 22.8158 18.6366 22.8158C16.8276 22.8158 15.3611 24.318 15.3611 26.171C15.3611 28.0241 16.8276 29.5263 18.6366 29.5263Z" fill="white"/>
<path d="M33.32 29.5263C35.129 29.5263 36.5955 28.0241 36.5955 26.171C36.5955 24.318 35.129 22.8158 33.32 22.8158C31.511 22.8158 30.0444 24.318 30.0444 26.171C30.0444 28.0241 31.511 29.5263 33.32 29.5263Z" fill="white"/>
<path d="M71.8355 26.7095C71.8355 34.571 76.4555 38.6974 82.5438 38.6974H85.4805C90.0647 38.6974 94.3265 35.6737 95.186 29.8398H91.8554C91.1391 33.1125 88.5247 35.5314 84.0122 35.5314C77.2076 35.5314 75.0588 31.2983 75.0588 26.4249V24.5751C75.0588 19.7017 77.2076 15.3619 84.0122 15.3619C88.1665 15.3619 90.7809 17.4962 91.6405 20.4843H95.0786C93.9684 15.184 89.814 12.3026 85.4805 12.3026H82.5438C76.4555 12.3026 71.8355 16.429 71.8355 24.2906V26.7095Z" fill="white"/>
<path d="M108.206 20.4843C106.128 20.4843 103.657 21.7293 102.368 23.5435V12.3026H99.1448V38.1282H102.368V29.1995C102.368 24.8241 105.376 23.5435 107.167 23.5435C110.175 23.5435 111.465 24.8953 111.465 28.0968V38.1282H114.688V27.5276C114.688 22.2274 111.178 20.4843 108.206 20.4843Z" fill="white"/>
<path d="M134.886 33.7528V27.5276C134.886 22.2274 132.129 20.4843 128.941 20.4843H125.431C121.922 20.4843 119.451 23.0811 119.451 25.6779H122.674C122.674 24.5396 123.963 23.5435 125.754 23.5435H127.903C131.09 23.5435 131.591 24.9309 131.663 27.3142H125.825C121.635 27.3142 118.985 29.5197 118.985 32.6501V33.0414C118.985 37.3812 122.495 38.6618 125.825 38.6618C128.046 38.6618 130.732 38.1282 131.95 36.2785C132.666 38.0927 134.636 38.1282 136.283 38.1282V35.069C135.638 35.069 134.886 34.8556 134.886 33.7528ZM126.864 35.6026C123.498 35.6026 122.208 34.8911 122.208 32.8991C122.208 31.7608 122.853 30.0177 126.864 30.0177H131.663V32.8279C131.663 35.1046 128.297 35.6026 126.864 35.6026Z" fill="white"/>
<path d="M141.986 16.5713C143.168 16.5713 144.135 15.6465 144.135 14.4726C144.135 13.2987 143.168 12.3026 141.986 12.3026C140.804 12.3026 139.837 13.2987 139.837 14.4726C139.837 15.6465 140.804 16.5713 141.986 16.5713ZM140.374 38.1282H143.598V21.0535H140.374V38.1282Z" fill="white"/>
<path d="M158.184 20.4843C155.999 20.4843 153.349 21.8716 152.131 23.8637V21.0535H149.123V38.1282H152.346V29.1995C152.346 24.8241 155.355 23.5435 157.145 23.5435C160.154 23.5435 161.443 24.8953 161.443 28.0968V38.1282H164.666V27.5276C164.666 22.2274 161.156 20.4843 158.184 20.4843Z" fill="white"/>
<path d="M192.958 25.1799C192.858 25.1799 181.176 25.1799 181.176 25.1799V28.2391H189.628V28.3102C189.126 32.3299 186.87 35.5314 180.961 35.5314C174.156 35.5314 172.007 31.2983 172.007 26.4249V24.5751C172.007 19.7017 174.156 15.3619 180.961 15.3619C185.831 15.3619 188.123 17.5674 189.162 20.6266H192.564C191.311 15.2552 187.479 12.3026 182.429 12.3026H179.492C173.404 12.3026 168.784 16.429 168.784 24.2906V26.7095C168.784 34.571 173.404 38.6974 179.492 38.6974H182.429C185.545 38.6974 188.267 37.5946 190.129 35.4959C191.991 33.3971 193.628 29.3716 192.958 25.1799Z" fill="white"/>
<path d="M209.781 12.8718H198.105V38.1282H201.329V28.8438H209.781C213.827 28.8438 217.874 27.1008 217.874 20.8756C217.874 14.9706 213.827 12.8718 209.781 12.8718ZM209.1 25.7846H201.329V15.9666H209.1C213.183 15.9666 214.472 18.0298 214.472 20.8756C214.472 23.7214 213.183 25.7846 209.1 25.7846Z" fill="white"/>
<path d="M239 12.8718H219.303V15.931H227.54V38.1282H230.763V15.931H239V12.8718Z" fill="white"/>
</svg>
