<svg width="248" height="51" viewBox="0 0 248 51" fill="none" xmlns="http://www.w3.org/2000/svg">
<path fill-rule="evenodd" clip-rule="evenodd" d="M30.2147 36.693C28.0198 38.0412 25.4189 38.8215 22.6307 38.8215C19.7382 38.8215 17.0477 37.9819 14.8026 36.5397L8.77694 42.3973C12.6053 45.2826 17.4118 47 22.6307 47C27.7468 47 32.4662 45.3497 36.2567 42.5667L30.2147 36.693ZM40.7768 38.1483C43.5936 34.4802 45.2613 29.9294 45.2613 25C45.2613 19.9265 43.4946 15.254 40.5267 11.5324L34.5011 17.3901C35.9847 19.5726 36.8484 22.1883 36.8484 25C36.8484 27.666 36.0718 30.1557 34.7268 32.267L40.7768 38.1483ZM15.1553 13.241C17.3272 11.9334 19.8883 11.1785 22.6307 11.1785C25.2685 11.1785 27.7384 11.8768 29.8557 13.0937L35.9246 7.19397C32.1921 4.55599 27.5983 3 22.6307 3C17.56 3 12.8786 4.62128 9.10543 7.3597L15.1553 13.241ZM10.6025 17.6274L4.56038 11.7537C1.69766 15.4385 0 20.0265 0 25C0 29.8291 1.60059 34.295 4.31419 37.9235L10.383 32.0236C9.13132 29.9654 8.41299 27.5642 8.41299 25C8.41299 22.2895 9.21563 19.761 10.6025 17.6274Z" fill="white"/>
<path d="M68.7668 23.4985C68.7668 19.5055 69.7947 16.4365 71.8836 14.2585C73.9724 12.0475 76.7576 10.9585 80.1727 10.9585C82.9247 10.9585 85.2457 11.6515 87.1356 13.0375C89.0255 14.3905 90.186 16.2055 90.5507 18.4165H86.804C86.174 15.8095 83.621 14.1595 80.2722 14.1595C77.9844 14.1595 76.1276 14.8525 74.7019 16.2055C73.2761 17.5585 72.5798 19.3735 72.5798 21.5845V25.3465C72.5798 27.4915 73.243 29.2075 74.6024 30.5605C75.9618 31.9135 77.7191 32.5735 79.9406 32.5735C82.0626 32.5735 83.7868 31.9135 85.1462 30.6265C86.5056 29.3395 87.2019 27.5905 87.235 25.4455H79.0785V22.4425H91.247V35.3125H88.2961L87.9645 31.3525H87.7324C86.1077 34.1575 83.0573 35.6425 79.3769 35.6425C76.0613 35.6425 73.4751 34.5535 71.5851 32.3755C69.6952 30.1975 68.7668 27.2275 68.7668 23.4985ZM92.6349 11.2555H110.805V14.4565H103.51V35.3125H99.9293V14.4565H92.6349V11.2555ZM125.298 35.3125H121.684V11.2555H132.393C137.466 11.2555 140.118 14.1265 140.118 19.0105C140.118 23.8945 137.4 26.7655 132.393 26.7655H125.298V35.3125ZM125.298 14.5555V23.6965H132.128C134.78 23.6965 136.306 22.2775 136.306 20.1325V17.8555C136.306 15.7435 134.814 14.5555 132.426 14.5555H125.298ZM146.74 17.9545H152.774V20.7925H147.138V35.3125H143.723V20.9245C143.723 19.2085 144.353 17.9545 146.74 17.9545ZM153.794 26.6335C153.794 23.8285 154.557 21.6505 156.082 20.0335C157.607 18.4165 159.663 17.6245 162.249 17.6245C164.769 17.6245 166.791 18.4165 168.35 20.0335C169.908 21.6175 170.704 23.8285 170.704 26.6335C170.704 29.3725 169.941 31.5835 168.449 33.2005C166.957 34.8175 164.868 35.6425 162.249 35.6425C159.629 35.6425 157.574 34.8505 156.049 33.2335C154.557 31.6165 153.794 29.4055 153.794 26.6335ZM157.275 25.3465V28.0525C157.275 31.0885 159.364 32.8045 162.249 32.8045C165.133 32.8045 167.189 31.0555 167.189 28.0525V25.3465C167.189 22.4095 165.133 20.4955 162.249 20.4955C159.298 20.4955 157.275 22.4095 157.275 25.3465ZM182.568 20.7925H178.954V32.5405H182.568V35.3125H178.457C176.534 35.3125 175.572 34.3885 175.572 32.5075V20.7925H172.422V17.9545H175.572V12.3115H178.954V17.9545H182.568V20.7925ZM185.008 26.6335C185.008 23.8285 185.771 21.6505 187.296 20.0335C188.821 18.4165 190.877 17.6245 193.463 17.6245C195.983 17.6245 198.005 18.4165 199.564 20.0335C201.122 21.6175 201.918 23.8285 201.918 26.6335C201.918 29.3725 201.155 31.5835 199.663 33.2005C198.171 34.8175 196.082 35.6425 193.463 35.6425C190.844 35.6425 188.788 34.8505 187.263 33.2335C185.771 31.6165 185.008 29.4055 185.008 26.6335ZM188.49 25.3465V28.0525C188.49 31.0885 190.578 32.8045 193.463 32.8045C196.348 32.8045 198.403 31.0555 198.403 28.0525V25.3465C198.403 22.4095 196.348 20.4955 193.463 20.4955C190.512 20.4955 188.49 22.4095 188.49 25.3465ZM217.72 29.2735H221.102C220.571 33.2335 217.587 35.6425 213.244 35.6425C210.624 35.6425 208.602 34.8505 207.11 33.2335C205.651 31.6165 204.921 29.4055 204.921 26.6665C204.921 23.8285 205.684 21.6175 207.209 20.0335C208.767 18.4165 210.79 17.6245 213.343 17.6245C217.488 17.6245 220.505 20.0665 221.069 23.7955H217.653C217.123 21.5845 215.465 20.4955 213.21 20.4955C210.293 20.4955 208.403 22.5085 208.403 25.4125V28.1185C208.403 30.9895 210.326 32.8045 213.21 32.8045C215.631 32.8045 217.322 31.4845 217.72 29.2735ZM223.702 26.6335C223.702 23.8285 224.464 21.6505 225.99 20.0335C227.515 18.4165 229.57 17.6245 232.157 17.6245C234.677 17.6245 236.699 18.4165 238.258 20.0335C239.816 21.6175 240.612 23.8285 240.612 26.6335C240.612 29.3725 239.849 31.5835 238.357 33.2005C236.865 34.8175 234.776 35.6425 232.157 35.6425C229.537 35.6425 227.482 34.8505 225.956 33.2335C224.464 31.6165 223.702 29.4055 223.702 26.6335ZM227.183 25.3465V28.0525C227.183 31.0885 229.272 32.8045 232.157 32.8045C235.041 32.8045 237.097 31.0555 237.097 28.0525V25.3465C237.097 22.4095 235.041 20.4955 232.157 20.4955C229.206 20.4955 227.183 22.4095 227.183 25.3465ZM248 35.3125H244.618V11.0245H248V35.3125Z" fill="white"/>
</svg>
