<svg width="239" height="51" viewBox="0 0 239 51" fill="none" xmlns="http://www.w3.org/2000/svg">
<path d="M12.7629 27.2922C12.7629 26.9077 12.9287 26.5233 13.2601 26.267C12.0999 26.1389 11.1055 25.7544 11.1055 24.8573C11.1055 23.9603 12.0999 23.5758 13.2601 23.3195C12.7629 23.0632 12.5972 22.6788 12.5972 22.2943C12.7629 20.2439 18.2324 22.038 18.2324 22.038V23.5758V23.704V25.4981V25.7544V27.2922C18.2324 27.4203 12.9286 29.2144 12.7629 27.2922Z" fill="url(#paint0_linear_3079_8334)"/>
<path d="M13.4258 36.9034C13.4258 36.6471 13.5915 36.3908 13.7573 36.2627C12.9286 36.1345 12.2656 35.8782 12.2656 35.2375C12.2656 34.5967 12.9286 34.3404 13.7573 34.2123C13.4258 34.0841 13.2601 33.8278 13.2601 33.5715C13.2601 32.1619 17.0721 33.4434 17.0721 33.4434V34.5967V35.8782V37.0316C17.0721 37.0316 13.4258 38.3131 13.4258 36.9034Z" fill="url(#paint1_linear_3079_8334)"/>
<path d="M11.7684 14.349C11.9342 13.9645 12.4314 13.5801 12.9286 13.452C11.6027 12.8112 10.774 12.0423 11.4369 11.0171C12.0999 9.99191 13.4258 9.86376 14.7518 10.2482C14.4203 9.86376 14.4203 9.35115 14.7518 8.9667C16.0777 6.78815 21.0499 10.889 21.0499 10.889L20.0555 12.6831L19.8898 12.9394L18.7296 14.9897L18.5638 15.2461L17.5694 16.912C17.7351 16.7838 10.6083 16.6557 11.7684 14.349Z" fill="url(#paint2_linear_3079_8334)"/>
<path d="M21.3817 48.0525C21.3817 48.0525 12.1002 51.1281 7.12793 48.0525L8.61959 46.0021H19.5585C19.7243 46.0021 22.2104 46.3866 22.2104 46.3866L21.3817 48.0525Z" fill="#A5A5A5"/>
<path d="M38.9501 32.9308C40.276 33.5715 43.7566 34.5968 42.4306 37.1598C41.9334 37.8005 41.2704 38.4412 40.6075 38.8257C39.4473 39.4665 40.4417 39.7228 41.1047 39.5946C41.7676 39.5946 49.889 38.1849 46.0769 32.9308C45.414 31.9056 42.2649 29.8552 39.4473 30.2397C36.6297 30.6241 38.2871 32.6745 38.9501 32.9308Z" fill="url(#paint3_linear_3079_8334)"/>
<path d="M17.0723 34.3404V36.3908C17.0723 36.3908 16.4094 43.5672 10.9399 43.5672C10.9399 43.5672 1.49263 44.3361 0.00095382 33.5715C0.00095382 33.5715 -0.496292 55.1008 21.2158 47.4117L22.0445 51L27.514 45.4895L36.7955 46.2584L40.2761 50.2311L40.7733 29.3426C40.7733 29.3426 57.679 31.1367 60.6623 31.393C60.6623 31.393 66.629 4.09696 44.4196 2.94361C15.0834 0.380605 17.238 18.9624 17.238 18.9624L17.0723 30.1115V34.3404Z" fill="url(#paint4_linear_3079_8334)"/>
<path d="M25.1938 24.4729C25.3596 20.5002 26.3541 19.2187 27.5143 19.2187C28.6745 19.2187 29.8346 22.5506 29.8346 26.7796L25.1938 24.4729Z" fill="#EAEAEA"/>
<path d="M37.293 18.4498C37.293 19.3469 39.1161 19.9876 41.4365 19.9876C43.7569 19.9876 45.58 19.2187 45.58 18.4498C45.58 17.6809 43.7569 16.912 41.4365 16.912C39.1161 16.912 37.293 17.5528 37.293 18.4498Z" fill="#DCDCDC"/>
<path d="M50.0547 18.1935C49.8889 18.5779 50.5519 19.0906 51.5464 19.3469C52.5408 19.475 53.3695 19.3468 53.5353 18.8342C53.701 18.3216 52.8723 17.809 52.0436 17.6809C51.0491 17.5527 50.0547 17.6809 50.0547 18.1935Z" fill="#DCDCDC"/>
<path d="M33.3149 19.7313C33.3149 19.9876 33.6464 20.3721 34.4751 20.5003C35.1381 20.6284 35.801 20.5002 35.9668 20.2439C35.9668 19.9876 35.6353 19.6032 34.8066 19.475C33.9779 19.2187 33.3149 19.3469 33.3149 19.7313Z" fill="#DCDCDC"/>
<path d="M41.4364 21.2692C41.2707 21.5255 41.7679 21.9099 42.4309 22.038C43.0938 22.1662 43.7568 22.0381 43.9225 21.7818C44.0883 21.5255 43.591 21.141 42.9281 21.0128C42.2651 20.8847 41.4364 21.0129 41.4364 21.2692Z" fill="#DCDCDC"/>
<path d="M30.3316 32.9308C30.3316 32.9308 29.3371 35.2375 27.8455 35.8783C28.8399 36.9035 30.6631 37.9287 32.6519 35.622C31.6575 34.8531 30.9946 33.956 30.4973 32.9308C30.4973 32.9308 33.6464 38.0568 36.9612 32.8027C36.9612 32.8027 35.3038 37.0316 32.8177 35.622C31.989 37.1598 30.0001 39.2102 27.6797 35.7501C26.6853 36.1346 25.3593 35.4938 23.8677 32.8027C23.8677 33.059 27.0168 38.3131 30.3316 32.9308Z" fill="#CECECE"/>
<path d="M42.9278 8.19778C42.7621 5.50662 39.9445 3.32805 36.2982 3.4562C35.4694 3.4562 34.6407 3.58437 33.9778 3.84067C31.6574 4.60958 30.1657 6.40368 30 8.32593C30 9.99189 30.9944 11.5297 32.8176 12.4267C36.1324 13.8364 40.2759 12.9394 42.0991 10.3763C42.0991 10.2482 42.2648 10.2482 42.2648 10.12C42.7621 9.47928 42.9278 8.83853 42.9278 8.19778Z" fill="#A5A5A5"/>
<path d="M42.4306 7.68519C42.2648 5.12218 39.613 3.07178 36.2981 3.19993C35.4694 3.19993 34.8065 3.32806 34.1435 3.58436C31.9889 4.35326 30.4972 5.89109 30.4972 7.81334C30.3315 9.35115 31.4917 10.8889 33.1491 11.786C36.2981 13.1956 40.1102 12.2986 41.9333 9.86372C41.9333 9.73557 42.0991 9.73559 42.0991 9.60744C42.2648 8.96669 42.4306 8.32594 42.4306 7.68519Z" fill="#EAEAEA"/>
<path d="M33.812 8.71039C33.812 9.7356 34.8064 10.5045 36.1324 10.5045C37.4583 10.5045 38.4527 9.7356 38.4527 8.71039C38.4527 7.68519 37.4583 6.9163 36.1324 6.9163C34.9722 6.78815 33.9778 7.55704 33.812 8.71039C33.812 8.58224 33.812 8.58224 33.812 8.71039Z" fill="#A0A0A0"/>
<path d="M34.6411 8.45411C34.6411 9.09486 35.3041 9.60745 36.1328 9.60745C36.9615 9.60745 37.6244 9.09486 37.6244 8.45411C37.6244 7.81335 36.9615 7.30072 36.1328 7.30072C35.4698 7.17257 34.8069 7.6852 34.6411 8.45411C34.8069 8.32596 34.6411 8.32596 34.6411 8.45411Z" fill="#3C3C3C"/>
<path d="M33.978 7.04445C33.978 7.55705 34.4752 7.94148 35.1382 7.94148C35.8011 7.94148 36.2984 7.55705 36.2984 7.04445C36.2984 6.53185 35.8011 6.14738 35.1382 6.14738C34.4752 6.14738 33.978 6.53185 33.978 7.04445Z" fill="white"/>
<path d="M35.1381 14.2209C37.7899 14.2209 40.4419 13.452 42.4307 12.0423C39.4474 15.1179 33.8122 15.7587 29.8344 13.452C29.1714 13.0675 28.5085 12.5549 28.0112 12.0423C29.8344 13.452 32.4862 14.2209 35.1381 14.2209Z" fill="#DCDCDC"/>
<path d="M35.9669 13.3238C38.1215 13.3238 40.2761 12.5549 41.7678 11.4016C39.4474 13.9646 34.8067 14.6053 31.4919 12.8112C30.8289 12.4268 30.3317 12.0423 29.8345 11.6579C31.6576 12.8112 33.8122 13.452 35.9669 13.3238Z" fill="#DCDCDC"/>
<path d="M36.464 28.83C39.4473 29.4708 42.5964 29.9833 45.7455 30.3678C48.5631 30.7522 51.2149 31.0085 53.3696 31.1367C57.6788 31.5212 60.4965 31.5212 60.4965 31.5212C60.4965 31.5212 57.8446 31.2649 53.5353 30.7523C51.3807 30.496 48.7288 30.1115 45.9112 29.727C43.0936 29.3426 39.9445 28.7019 36.7954 28.0611C33.8121 27.4203 30.8288 26.5233 28.1769 25.4981C27.0167 24.9855 25.8565 24.4729 24.8621 23.8322C23.8676 23.1914 23.2047 22.5506 22.5417 21.6536C22.0445 21.0128 21.8787 20.2439 21.8787 19.475V19.2187C21.8787 19.0906 21.8787 19.0906 21.8787 18.9624C21.8787 18.8343 21.8787 18.7061 21.8787 18.578C21.8787 18.4498 21.8787 18.3217 22.0444 18.1935C22.2102 18.0654 22.2102 17.9372 22.2102 17.8091C22.3759 17.4246 22.5417 17.1683 22.7074 16.7839L22.8732 16.3994L22.5417 16.7839C22.2102 17.0402 22.0444 17.4246 21.8787 17.8091C21.8787 17.9372 21.713 18.0654 21.713 18.1935C21.713 18.3217 21.5472 18.4498 21.5472 18.578C21.5472 18.7061 21.3815 18.8343 21.3815 19.0906C21.3815 19.2187 21.3815 19.2187 21.3815 19.3469C21.3815 19.475 21.3815 19.475 21.3815 19.6032C21.2158 20.3721 21.3815 21.141 21.8787 21.9099C22.3759 22.807 23.2047 23.5758 24.0334 24.3447C25.0278 25.1137 26.188 25.7544 27.5139 26.267C30.4973 27.2922 33.4806 28.1893 36.464 28.83Z" fill="#A5A5A5"/>
<mask id="mask0_3079_8334" style="mask-type:luminance" maskUnits="userSpaceOnUse" x="44" y="4" width="18" height="11">
<path d="M44.917 14.8616H61.3254L61.9883 4.48145L44.917 7.17261V14.8616Z" fill="white"/>
</mask>
<g mask="url(#mask0_3079_8334)">
<path d="M45.2485 8.32596C45.4143 10.889 48.0662 12.9394 51.381 12.8112C52.2097 12.8112 52.8726 12.683 53.5356 12.4267C55.6902 11.6578 57.1819 10.1201 57.1819 8.1978C57.1819 6.66 56.1875 5.12218 54.5301 4.22513C51.381 2.81548 47.5689 3.71253 45.7458 6.14739C45.7458 6.27554 45.58 6.27555 45.58 6.4037C45.4143 7.04446 45.2485 7.68521 45.2485 8.32596Z" fill="#A5A5A5"/>
<path d="M45.4141 7.81334C45.4141 10.2482 48.2317 12.2986 51.3808 12.1704C52.2095 12.1704 52.8724 12.0423 53.5354 11.786C55.69 11.0171 57.016 9.47929 57.1817 7.68518C57.1817 6.14738 56.1873 4.73773 54.5298 3.84067C51.5465 2.55917 47.7344 3.32806 46.077 5.63477C46.077 5.76292 45.9113 5.89109 45.9113 5.89109C45.5798 6.53184 45.4141 7.17259 45.4141 7.81334Z" fill="#EAEAEA"/>
<path d="M51.7125 10.5045C52.994 10.5045 54.0329 9.70124 54.0329 8.71039C54.0329 7.71953 52.994 6.91629 51.7125 6.91629C50.4309 6.91629 49.3921 7.71953 49.3921 8.71039C49.3921 9.70124 50.4309 10.5045 51.7125 10.5045Z" fill="#A0A0A0"/>
<path d="M50.0552 8.45411C50.0552 9.09486 50.7182 9.60745 51.5469 9.60745C52.3756 9.60745 53.0385 9.09486 53.0385 8.45411C53.0385 7.81335 52.3756 7.30072 51.5469 7.30072C50.8839 7.17257 50.0552 7.6852 50.0552 8.45411Z" fill="#3C3C3C"/>
<path d="M52.5411 13.9646C54.8615 14.2209 57.1818 13.7083 59.1707 12.6831C56.1874 15.1179 51.2152 15.3742 47.9004 13.0675C47.4031 12.683 46.9059 12.1705 46.4087 11.6579C48.0661 12.9394 50.2207 13.8364 52.5411 13.9646Z" fill="#DCDCDC"/>
<path d="M49.3921 7.04445C49.3921 7.55705 49.8893 7.94148 50.5523 7.94148C51.2153 7.94148 51.7125 7.55705 51.7125 7.04445C51.7125 6.53185 51.2153 6.14738 50.5523 6.14738C49.8893 6.14738 49.3921 6.53185 49.3921 7.04445Z" fill="white"/>
<path d="M53.0383 13.0675C55.0272 12.8112 56.6847 12.1705 58.0106 11.0171C56.1874 13.452 52.2096 14.349 49.0606 13.0675C48.5633 12.8112 48.0661 12.5549 47.5688 12.1705C49.2263 12.9394 51.2152 13.3238 53.0383 13.0675Z" fill="#DCDCDC"/>
</g>
<path d="M57.1819 2.0466C55.0273 5.50666 50.2208 7.55705 45.2485 6.9163C45.4143 6.9163 53.8671 5.25036 57.1819 2.0466Z" fill="#DCDCDC"/>
<path d="M42.4307 2.81546C40.4418 2.04656 32.1547 -1.02903 28.8398 3.19993C29.5028 1.66213 31.1602 0.508754 33.3149 0.252453C36.6297 -0.516449 40.276 0.508754 42.4307 2.81546Z" fill="#DCDCDC"/>
<path d="M19.7244 32.9308C18.3985 33.5715 14.9179 34.5968 16.2438 37.1598C16.741 37.8005 17.2383 38.3131 18.067 38.8257C19.2272 39.3383 18.2327 39.7228 17.5698 39.5946C16.9068 39.5946 8.78547 38.3131 12.5975 32.9308C13.2605 31.9056 16.4096 29.8552 19.2272 30.2397C22.0448 30.6241 20.3873 32.6745 19.7244 32.9308Z" fill="#DDDDDD"/>
<path d="M73.7559 29.5989C73.7559 28.4456 73.9216 27.2922 74.5846 26.1388C75.0818 25.1136 75.7447 24.2166 76.7392 23.3195C77.7336 22.5506 78.8938 21.9099 80.2198 21.3973C81.7114 20.8847 83.3688 20.6284 84.8605 20.7565C85.855 20.7565 87.0152 20.8847 88.0096 21.0128C89.0041 21.141 89.8328 21.3973 90.8272 21.6536L89.5013 25.3699C88.8383 25.2418 88.1754 25.1136 87.6781 24.9855C86.8494 24.8573 86.1865 24.7292 85.3578 24.8573C83.8661 24.7292 82.3744 25.2418 81.38 26.1388C80.3855 27.164 79.8883 28.3174 80.054 29.5989C79.8883 30.8804 80.3855 32.0337 81.38 33.0589C82.5402 33.956 84.0318 34.4686 85.6892 34.3404C86.5179 34.3404 87.3467 34.3404 88.0096 34.2123C88.8383 34.0841 89.667 33.956 90.33 33.6997L91.1587 37.5442C90.33 37.8005 89.3355 38.0568 88.5068 38.185C87.3466 38.3131 86.1864 38.4413 85.0263 38.4413C83.3688 38.4413 81.5457 38.185 79.8883 37.8005C78.5623 37.4161 77.4022 36.7753 76.4077 35.8783C75.4133 35.1094 74.7503 34.0841 74.4188 33.0589C73.9216 31.9056 73.7559 30.7523 73.7559 29.5989Z" fill="white"/>
<path d="M115.357 29.5989C115.357 30.8804 115.191 32.0338 114.694 33.1871C114.197 34.2123 113.534 35.1094 112.539 36.0064C111.545 36.7753 110.55 37.4161 109.224 37.8005C107.898 38.185 106.407 38.4413 104.915 38.4413C103.423 38.4413 101.932 38.185 100.606 37.8005C99.2798 37.4161 98.2854 36.7753 97.2909 36.0064C96.2965 35.2375 95.6335 34.2123 95.1363 33.1871C94.6391 32.0338 94.3076 30.8804 94.3076 29.5989C94.3076 28.3174 94.6391 27.164 95.1363 26.0107C95.6335 24.9855 96.4622 24.0884 97.2909 23.3195C98.2854 22.5506 99.2798 21.9099 100.606 21.5254C103.258 20.6284 106.407 20.6284 109.059 21.5254C110.385 21.9099 111.379 22.5506 112.373 23.3195C113.368 24.0884 114.031 25.1136 114.528 26.0107C115.191 27.164 115.357 28.4456 115.357 29.5989ZM109.224 29.5989C109.39 28.4456 108.893 27.164 108.064 26.1388C106.738 24.7292 104.252 24.4729 102.429 25.4981C102.097 25.6262 101.932 25.8825 101.6 26.1388C100.772 27.164 100.44 28.3174 100.44 29.5989C100.274 30.8804 100.772 32.0337 101.6 33.0589C102.263 33.956 103.589 34.3404 104.915 34.3404C106.241 34.3404 107.401 33.956 108.064 33.0589C108.893 32.0337 109.39 30.8804 109.224 29.5989Z" fill="white"/>
<path d="M127.787 16.5276C127.787 17.2965 127.456 18.0654 126.793 18.578C126.13 19.0906 125.136 19.3469 124.141 19.3469C123.147 19.3469 122.318 19.0906 121.655 18.578C120.992 18.0654 120.495 17.2965 120.661 16.5276C120.661 15.7586 120.992 14.9897 121.821 14.4771C123.312 13.4519 125.467 13.4519 126.959 14.4771C127.456 14.9897 127.953 15.7586 127.787 16.5276ZM127.29 38.0568H121.158V21.3972H127.29V38.0568Z" fill="white"/>
<path d="M134.086 21.9099C137.069 21.2691 140.218 21.0128 143.201 21.0128C144.693 21.0128 146.351 21.141 147.842 21.5254C149.002 21.9099 149.997 22.4225 150.66 23.0632C151.323 23.8321 151.82 24.601 152.151 25.4981C152.483 26.5233 152.649 27.5485 152.649 28.5737V37.9287H146.516V29.0863C146.682 27.9329 146.351 26.9077 145.688 25.8825C145.025 25.2418 143.864 24.8573 142.704 24.9855C142.207 24.9855 141.71 24.9855 141.378 24.9855L140.052 25.1136V37.9287H133.92L134.086 21.9099Z" fill="white"/>
<path d="M175.355 24.601L173.367 26.267C172.538 27.0359 171.709 27.8048 170.715 28.7018C169.72 29.5989 168.726 30.496 167.731 31.393C166.737 32.2901 165.908 33.3152 165.079 34.2123H175.521V38.185H157.621V35.3657C158.284 34.4686 158.947 33.6997 159.61 32.9308C160.439 32.0337 161.267 31.1367 162.096 30.2397C162.925 29.3426 163.919 28.4456 164.748 27.6767C165.577 26.9078 166.405 26.1388 167.234 25.3699H158.118V21.3973H175.19V24.601H175.355Z" fill="white"/>
<path d="M187.289 16.5276C187.289 17.2965 186.957 18.0654 186.128 18.578C185.466 19.0906 184.471 19.3469 183.642 19.3469C182.648 19.3469 181.819 19.0906 181.156 18.578C180.493 18.0654 179.996 17.2965 179.996 16.5276C179.996 15.7586 180.328 14.9897 181.156 14.4771C182.648 13.4519 184.803 13.4519 186.294 14.4771C186.957 14.9897 187.289 15.7586 187.289 16.5276ZM186.626 38.0568H180.493V21.3972H186.626V38.0568Z" fill="white"/>
<path d="M202.039 38.3131C200.548 38.3131 199.056 38.185 197.73 37.8005C196.736 37.5442 195.907 37.1598 195.078 36.6472C194.415 36.1346 193.918 35.4938 193.752 34.853C193.587 34.0841 193.421 33.3152 193.421 32.4182V14.0927L199.553 13.3238V31.393C199.553 31.7775 199.553 32.1619 199.719 32.5464C199.719 32.8027 199.885 33.1871 200.216 33.4434C200.548 33.6997 200.879 33.956 201.211 33.956C201.708 34.0842 202.371 34.2123 203.034 34.2123L202.039 38.3131Z" fill="white"/>
<path d="M215.962 38.3131C214.47 38.3131 212.978 38.185 211.653 37.8005C210.658 37.5442 209.829 37.1598 209.001 36.6472C208.338 36.1346 207.84 35.4938 207.675 34.853C207.509 34.0841 207.343 33.3152 207.343 32.4182V14.0927L213.476 13.3238V31.393C213.476 31.7775 213.476 32.1619 213.641 32.5464C213.641 32.8027 213.807 33.1871 214.139 33.4434C214.47 33.6997 214.802 33.956 215.133 33.956C215.63 34.0842 216.293 34.2123 216.956 34.2123L215.962 38.3131Z" fill="white"/>
<path d="M229.719 21.0128C231.21 21.0128 232.702 21.141 234.194 21.5254C235.354 21.7817 236.348 22.2943 237.011 22.9351C237.674 23.5758 238.337 24.3447 238.503 25.1136C238.834 26.0107 239 27.0359 239 27.9329V37.6724C238.171 37.8005 236.845 37.9286 235.354 38.1849C233.531 38.4412 231.542 38.5694 229.719 38.4413C228.393 38.4413 227.232 38.3131 225.906 38.1849C224.912 38.0568 223.918 37.6724 222.923 37.2879C222.094 36.9035 221.431 36.2627 221.1 35.6219C220.603 34.853 220.437 33.956 220.437 33.0589C220.437 32.1619 220.603 31.393 221.266 30.6241C221.763 29.9833 222.426 29.4708 223.255 28.9582C224.083 28.5737 225.078 28.3174 226.238 28.0611C227.398 27.9329 228.558 27.8048 229.719 27.8048C230.381 27.8048 231.044 27.8048 231.873 27.9329C232.37 27.9329 232.868 28.0611 233.365 28.1892V27.8048C233.365 27.0359 233.033 26.3951 232.37 25.8825C231.376 25.3699 230.216 25.1136 229.056 25.1136C228.061 25.1136 227.067 25.1136 225.906 25.2418C225.078 25.3699 224.083 25.4981 223.255 25.7544L222.426 21.9099L223.752 21.6536C224.249 21.5254 224.912 21.5254 225.575 21.3973C226.238 21.2691 226.901 21.2691 227.564 21.2691C228.227 21.2691 229.056 21.0128 229.719 21.0128ZM230.216 34.7249C230.879 34.7249 231.376 34.7249 231.873 34.7249C232.37 34.7249 232.702 34.7249 233.199 34.5968V31.0085C232.868 31.0085 232.536 30.8804 232.039 30.8804C231.542 30.8804 231.044 30.8804 230.713 30.8804C230.216 30.8804 229.553 30.8804 229.056 31.0085C228.558 31.0085 228.227 31.1367 227.73 31.2648C227.398 31.393 227.067 31.6493 226.901 31.9056C226.238 32.8026 226.569 33.8278 227.564 34.3404C228.393 34.7249 229.221 34.8531 230.216 34.7249Z" fill="white"/>
<defs>
<linearGradient id="paint0_linear_3079_8334" x1="15.2891" y1="22.9048" x2="14.8795" y2="26.5999" gradientUnits="userSpaceOnUse">
<stop stop-color="#B9B9B9"/>
<stop offset="1" stop-color="#6B6B6B"/>
</linearGradient>
<linearGradient id="paint1_linear_3079_8334" x1="15.6582" y1="32.9527" x2="15.042" y2="36.4314" gradientUnits="userSpaceOnUse">
<stop stop-color="#C2C2C2"/>
<stop offset="1" stop-color="#9F9F9F"/>
</linearGradient>
<linearGradient id="paint2_linear_3079_8334" x1="16.5355" y1="10.4814" x2="15.0554" y2="16.074" gradientUnits="userSpaceOnUse">
<stop stop-color="#DCDCDC"/>
<stop offset="1" stop-color="#7D7D7D"/>
</linearGradient>
<linearGradient id="paint3_linear_3079_8334" x1="40.9908" y1="39.6375" x2="42.0347" y2="30.2931" gradientUnits="userSpaceOnUse">
<stop stop-color="#DADADA"/>
<stop offset="1" stop-color="#8D8C8A"/>
</linearGradient>
<linearGradient id="paint4_linear_3079_8334" x1="37.1206" y1="14.3386" x2="32.2408" y2="35.9736" gradientUnits="userSpaceOnUse">
<stop stop-color="#C4C4C4"/>
<stop offset="1" stop-color="#9F9F9F"/>
</linearGradient>
</defs>
</svg>
