<svg width="239" height="52" viewBox="0 0 239 52" fill="none" xmlns="http://www.w3.org/2000/svg">
<path fill-rule="evenodd" clip-rule="evenodd" d="M48.3301 0.905182C48.1426 0.905182 47.9683 1.00311 47.869 1.16432L24.505 39.078C24.3918 39.2616 24.522 39.4997 24.7354 39.4997H37.5344C37.7218 39.4997 37.8961 39.4018 37.9954 39.2406L61.3595 1.32696C61.4726 1.14335 61.3424 0.905182 61.129 0.905182H48.3301ZM23.8668 13.3106C23.6794 13.3106 23.5051 13.4085 23.4058 13.5698L0.0417508 51.4834C-0.0713998 51.667 0.0587561 51.9052 0.272248 51.9052H13.0712C13.2586 51.9052 13.4328 51.8073 13.5322 51.6461L36.8963 13.7324C37.0094 13.5488 36.8792 13.3106 36.6658 13.3106H23.8668Z" fill="white"/>
<path d="M64.0657 41.085C64.0657 41.2371 64.1873 41.3606 64.3375 41.3606H72.3153C72.4653 41.3606 72.5871 41.2371 72.5871 41.085V29.7685C72.5871 29.6162 72.7088 29.4928 72.8589 29.4928H82.3044C82.4545 29.4928 82.5762 29.6162 82.5762 29.7685V41.085C82.5762 41.2371 82.6979 41.3606 82.848 41.3606H90.8258C90.9758 41.3606 91.0976 41.2371 91.0976 41.085V11.119C91.0976 10.9667 90.9758 10.8433 90.8258 10.8433H82.848C82.6979 10.8433 82.5762 10.9667 82.5762 11.119V21.6085C82.5762 21.7606 82.4545 21.8842 82.3044 21.8842H72.8589C72.7088 21.8842 72.5871 21.7606 72.5871 21.6085V11.119C72.5871 10.9667 72.4653 10.8433 72.3153 10.8433H64.3375C64.1873 10.8433 64.0657 10.9667 64.0657 11.119V41.085Z" fill="white"/>
<path d="M106.573 49.3414C106.689 49.3414 106.792 49.2673 106.83 49.1568L117.363 18.6533C117.425 18.4741 117.293 18.2865 117.106 18.2865H109.802C109.683 18.2865 109.578 18.3649 109.542 18.4801L105.886 30.3547C105.808 30.6083 105.456 30.6141 105.37 30.3632L101.285 18.4716C101.247 18.3608 101.144 18.2865 101.028 18.2865H93.1486C92.9568 18.2865 92.8254 18.4825 92.8958 18.6634L101.435 40.6034C101.46 40.6672 101.46 40.7379 101.436 40.8019L98.4017 48.9686C98.3347 49.1488 98.4661 49.3414 98.6561 49.3414H106.573Z" fill="white"/>
<path fill-rule="evenodd" clip-rule="evenodd" d="M118.601 49.0658C118.601 49.218 118.723 49.3414 118.873 49.3414H126.116C126.267 49.3414 126.388 49.218 126.388 49.0658V40.3654C126.388 40.1341 126.654 40.0033 126.84 40.1375C128.347 41.2249 130.034 41.7742 131.933 41.7742C138.137 41.7742 142.126 36.4289 142.126 29.8236C142.126 23.303 138.139 17.873 131.933 17.873C129.78 17.873 127.9 18.57 126.28 19.8603C126.096 20.0069 125.818 19.8779 125.818 19.6406V18.5622C125.818 18.4099 125.696 18.2865 125.546 18.2865H118.873C118.723 18.2865 118.601 18.4099 118.601 18.5622V49.0658ZM130.262 25.0681C131.213 25.0681 132.153 25.4478 132.858 26.2178C133.561 26.9864 134.053 28.1722 134.053 29.8236C134.053 31.5186 133.559 32.7023 132.859 33.4585C132.158 34.216 131.219 34.5789 130.262 34.5789C129.301 34.5789 128.362 34.2242 127.662 33.4773C126.964 32.732 126.47 31.5599 126.47 29.865C126.47 28.1893 126.954 26.9935 127.652 26.221C128.35 25.4485 129.288 25.0681 130.262 25.0681Z" fill="white"/>
<path fill-rule="evenodd" clip-rule="evenodd" d="M151.262 32.3395C151.224 32.1716 151.352 32.0152 151.523 32.0152H165.716C165.847 32.0152 165.96 31.919 165.983 31.7871L166.004 31.6731C167.31 24.1086 162.274 17.873 154.756 17.873C148.004 17.873 143.096 22.8992 143.096 29.7822C143.096 33.3286 144.259 36.3227 146.322 38.4317C148.386 40.5408 151.319 41.7328 154.797 41.7328C157.599 41.7328 160.021 41.0004 161.923 39.5907C163.826 38.1797 165.179 36.1102 165.872 33.487L165.918 33.3134C165.964 33.1383 165.835 32.9663 165.656 32.9663H158.413C158.302 32.9663 158.201 33.0365 158.16 33.143L158.127 33.2314C157.849 33.9639 157.423 34.4979 156.86 34.8533C156.293 35.211 155.557 35.406 154.633 35.406C153.603 35.406 152.832 35.0868 152.27 34.4816C151.816 33.9926 151.473 33.2879 151.262 32.3395ZM156.824 24.7883C157.223 25.2037 157.512 25.7654 157.649 26.4549C157.681 26.6177 157.554 26.7636 157.391 26.7636H151.667C151.488 26.7636 151.358 26.5923 151.411 26.4201C151.648 25.6634 151.977 25.1009 152.383 24.7049C152.92 24.1834 153.636 23.9103 154.593 23.9103C155.536 23.9103 156.293 24.2358 156.824 24.7883Z" fill="white"/>
<path d="M169.141 41.085C169.141 41.2371 169.262 41.3606 169.413 41.3606H189.703C189.854 41.3606 189.976 41.2371 189.976 41.085V33.7381C189.976 33.5858 189.854 33.4624 189.703 33.4624H177.934C177.784 33.4624 177.663 33.3391 177.663 33.1868V11.119C177.663 10.9667 177.541 10.8433 177.39 10.8433H169.413C169.262 10.8433 169.141 10.9667 169.141 11.119V41.085Z" fill="white"/>
<path fill-rule="evenodd" clip-rule="evenodd" d="M205.035 40.1895C205.222 40.046 205.503 40.1759 205.503 40.4139V41.085C205.503 41.2371 205.624 41.3606 205.774 41.3606H211.673C211.823 41.3606 211.945 41.2371 211.945 41.085V27.2185C211.945 24.3155 211.026 21.9627 209.285 20.3392C207.548 18.7199 205.043 17.873 201.955 17.873C199.16 17.873 196.756 18.7482 194.995 20.3173C193.232 21.8879 192.138 24.1307 191.927 26.8133L191.915 26.9621C191.902 27.1226 192.028 27.2597 192.186 27.2597H198.731C198.868 27.2597 198.984 27.1566 199.002 27.019L199.016 26.8986C199.131 25.9965 199.445 25.343 199.91 24.9143C200.374 24.487 201.033 24.2411 201.914 24.2411C202.822 24.2411 203.472 24.4896 203.894 24.9048C204.314 25.3183 204.564 25.9531 204.564 26.8463V27.122C204.564 27.2893 204.419 27.418 204.256 27.3983C203.484 27.3056 202.638 27.2597 201.751 27.2597C198.572 27.2597 196.042 27.8549 194.296 29.0519C192.526 30.2649 191.599 32.0714 191.599 34.3722C191.599 36.5883 192.406 38.4507 193.834 39.7553C195.259 41.0563 197.269 41.7742 199.632 41.7742C201.878 41.7742 203.607 41.2839 205.035 40.1895ZM201.262 36.0676C200.469 36.0676 199.902 35.8664 199.54 35.5519C199.186 35.2448 198.98 34.7886 198.98 34.1654C198.98 33.5389 199.226 33.0945 199.714 32.7846C200.233 32.4565 201.05 32.2632 202.199 32.2632C202.906 32.2632 203.561 32.3159 204.339 32.4447C204.471 32.4662 204.564 32.5811 204.564 32.7149V33.5452C204.564 34.3375 204.268 34.9475 203.737 35.37C203.194 35.8021 202.366 36.0676 201.262 36.0676Z" fill="white"/>
<path fill-rule="evenodd" clip-rule="evenodd" d="M215.475 41.085C215.475 41.2371 215.596 41.3606 215.746 41.3606H222.42C222.569 41.3606 222.691 41.2371 222.691 41.085V40.0066C222.691 39.7692 222.97 39.6401 223.153 39.7867C224.773 41.0772 226.654 41.7742 228.806 41.7742C235.012 41.7742 239 36.3442 239 29.8236C239 23.2181 235.011 17.873 228.806 17.873C226.908 17.873 225.22 18.4221 223.713 19.5097C223.527 19.6439 223.262 19.5131 223.262 19.2818V11.119C223.262 10.9667 223.141 10.8433 222.99 10.8433H215.746C215.596 10.8433 215.475 10.9667 215.475 11.119V41.085ZM227.135 25.0681C228.092 25.0681 229.031 25.4312 229.732 26.1886C230.433 26.9449 230.926 28.1286 230.926 29.8236C230.926 31.475 230.435 32.6606 229.731 33.4293C229.027 34.1994 228.087 34.5789 227.135 34.5789C226.162 34.5789 225.223 34.1985 224.526 33.426C223.828 32.6537 223.343 31.4579 223.343 29.7822C223.343 28.0872 223.838 26.9152 224.536 26.1697C225.236 25.423 226.174 25.0681 227.135 25.0681Z" fill="white"/>
</svg>
