<svg width="239" height="44" viewBox="0 0 239 44" fill="none" xmlns="http://www.w3.org/2000/svg">
<path d="M7.00339 6.73952L18.1432 0L29.2831 6.73952L25.1875 9.22928L18.1432 4.97952L11.0989 9.22928L7.00339 6.73952ZM29.2831 15.239L25.1875 12.7493L18.1432 16.999L11.0989 12.7493L7.00339 15.239V20.2186L14.0477 24.4682V32.9677L18.1432 35.4576L22.2388 32.9677V24.4682L29.2831 20.2186V15.239ZM29.2831 28.7181V23.7386L25.1875 26.2282V31.2077L29.2831 28.7181ZM32.1909 30.4781L25.1466 34.7277V39.7073L36.2865 32.9677V19.4887L32.1909 21.9786V30.4781ZM28.0955 10.9893L32.1909 13.479V18.4586L36.2865 15.9688V10.9893L32.1909 8.49952L28.0955 10.9893ZM14.0477 36.5308V41.5103L18.1432 44L22.2388 41.5103V36.5308L18.1432 39.0205L14.0477 36.5308ZM7.00339 28.7181L11.0989 31.2077V26.2282L7.00339 23.7386V28.7181ZM14.0477 10.9893L18.1432 13.479L22.2388 10.9893L18.1432 8.49952L14.0477 10.9893ZM4.09553 13.479L8.19107 10.9893L4.09553 8.49952L0 10.9893V15.9688L4.09553 18.4586V13.479ZM4.09553 21.9786L0 19.4887V32.9677L11.1398 39.7073V34.7277L4.09553 30.4781V21.9786Z" fill="white"/>
<path d="M68.5748 27.6129V27.5429C68.5748 24.2546 66.906 22.6105 64.2027 21.5261C65.8714 20.5467 67.2731 19.0074 67.2731 16.2439V16.1739C67.2731 12.3259 64.3361 9.8422 59.5635 9.8422H48.7165V34.3295H59.8305C65.1038 34.3295 68.5748 32.0907 68.5748 27.6129ZM62.1667 17.1534C62.1667 18.9724 60.7317 19.7421 58.4622 19.7421H53.7229V14.5647H58.7959C60.9652 14.5647 62.1667 15.4743 62.1667 17.0834V17.1534ZM63.4684 26.9483C63.4684 28.7674 62.1 29.6069 59.8305 29.6069H53.7229V24.2198H59.6637C62.3003 24.2198 63.4684 25.2342 63.4684 26.8783V26.9483Z" fill="white"/>
<path d="M93.896 34.3295V9.8422H88.8228V24.9194L77.8758 9.8422H73.1366V34.3295H78.2096V18.7625L89.5237 34.3295H93.896Z" fill="white"/>
<path d="M119.696 27.6129V27.5429C119.696 24.2546 118.027 22.6105 115.324 21.5261C116.993 20.5467 118.395 19.0074 118.395 16.2439V16.1739C118.395 12.3259 115.458 9.8422 110.685 9.8422H99.838V34.3295H110.952C116.225 34.3295 119.696 32.0907 119.696 27.6129ZM113.288 17.1534C113.288 18.9724 111.853 19.7421 109.584 19.7421H104.844V14.5647H109.917C112.087 14.5647 113.288 15.4743 113.288 17.0834V17.1534ZM114.59 26.9483C114.59 28.7674 113.221 29.6069 110.952 29.6069H104.844V24.2198H110.785C113.422 24.2198 114.59 25.2342 114.59 26.8783V26.9483Z" fill="white"/>
<path d="M150.673 30.0036L148.036 27.2052C146.033 29.1641 144.198 30.3884 141.328 30.3884C136.855 30.3884 133.618 26.4706 133.618 21.643C133.618 16.8155 136.855 12.9675 141.328 12.9675C143.998 12.9675 146 14.1919 147.869 16.011L150.506 12.8276C148.27 10.5888 145.666 9.01459 141.361 9.01459C134.285 9.01459 129.312 14.7166 129.312 21.7131C129.312 28.7793 134.386 34.3415 141.194 34.3415C145.566 34.3415 148.236 32.6623 150.673 30.0036Z" fill="white"/>
<path d="M170.574 23.602V33.9216H174.679V9.43437H170.574V19.6141H159.426V9.43437H155.321V33.9216H159.426V23.602H170.574Z" fill="white"/>
<path d="M193.094 9.25947H189.29L179.01 33.9216H183.215L185.618 28.0097H196.666L199.036 33.9216H203.374L193.094 9.25947ZM195.163 24.1967H187.121L191.124 14.4018L195.163 24.1967Z" fill="white"/>
<path d="M207.948 9.43437V33.9216H212.053V9.43437H207.948Z" fill="white"/>
<path d="M234.961 26.3655L222.444 9.43437H218.64V33.9216H222.679V16.5007L235.561 33.9216H239V9.43437H234.961V26.3655Z" fill="white"/>
</svg>
