<svg width="239" height="44" viewBox="0 0 239 44" fill="none" xmlns="http://www.w3.org/2000/svg">
<path d="M45.6378 33.9174C45.0807 33.9174 44.6869 33.7807 44.4563 33.5077C44.245 33.2346 44.1393 32.8021 44.1393 32.2104V12.4443C44.1393 11.8523 44.2545 11.4199 44.4851 11.1469C44.7157 10.851 45.0998 10.703 45.6378 10.703H52.6979C55.3874 10.703 57.3661 11.3745 58.6342 12.7172C59.9021 14.06 60.536 16.0628 60.536 18.7255C60.536 21.3656 59.9021 23.3571 58.6342 24.6998C57.3854 26.02 55.4066 26.68 52.6979 26.68H49.9603V32.2104C49.9603 32.8021 49.8451 33.2346 49.6145 33.5077C49.3839 33.7807 48.9901 33.9174 48.433 33.9174H45.6378ZM52.2369 21.7298C53.0246 21.7298 53.6297 21.4795 54.0523 20.9788C54.4941 20.4781 54.7151 19.7271 54.7151 18.7257C54.7151 17.7015 54.4941 16.939 54.0523 16.4383C53.6297 15.9376 53.0246 15.6872 52.2369 15.6872H49.9603V21.7298H52.2369ZM67.3414 34.4293C65.5357 34.4293 64.0852 33.7465 62.9901 32.3812C61.9143 30.9928 61.3765 29.047 61.3765 26.5433C61.3765 24.6316 61.7415 22.9587 62.4714 21.5249C63.2207 20.0911 64.2678 18.9873 65.6125 18.2135C66.9765 17.417 68.5422 17.0187 70.3096 17.0187C71.7697 17.0187 73.0569 17.2121 74.1711 17.5992C75.3045 17.9632 76.3418 18.498 77.2832 19.2036V32.859C77.2832 33.2915 77.2161 33.576 77.0814 33.7124C76.947 33.8491 76.6781 33.9174 76.2747 33.9174H73.3353C73.124 33.9174 72.9607 33.8832 72.8456 33.8148C72.7302 33.7239 72.6342 33.5873 72.5574 33.4051L72.1826 32.3812C71.6255 33.0866 70.9532 33.5988 70.1656 33.9174C69.3972 34.2588 68.4558 34.4293 67.3414 34.4293ZM69.5028 29.7865C70.252 29.7865 70.8379 29.5702 71.2605 29.138C71.6831 28.7056 71.8944 28.091 71.8944 27.2943V21.9689C71.5296 21.7639 71.0684 21.6616 70.5113 21.6616C69.4931 21.6616 68.6766 22.0825 68.0619 22.9246C67.4663 23.7667 67.1686 24.9502 67.1686 26.4751C67.1686 28.6827 67.9465 29.7865 69.5028 29.7865ZM81.2936 33.9174C80.7363 33.9174 80.3425 33.7807 80.1121 33.5077C79.8815 33.2346 79.7663 32.8021 79.7663 32.2104V18.589C79.7663 18.1794 79.8239 17.9062 79.9391 17.7697C80.0735 17.6102 80.3425 17.5307 80.746 17.5307H83.7142C83.9446 17.5307 84.1176 17.5763 84.2327 17.6674C84.3672 17.7356 84.4441 17.8721 84.4633 18.077L84.6073 19.1012C85.1453 18.4638 85.8466 17.9632 86.711 17.5992C87.5947 17.2121 88.5745 17.0187 89.6503 17.0187C91.2064 17.0187 92.4648 17.5422 93.4252 18.589C94.3859 19.6132 94.8661 21.1381 94.8661 23.1637V32.2104C94.8661 32.8021 94.7509 33.2346 94.5203 33.5077C94.309 33.7807 93.9247 33.9174 93.3676 33.9174H90.5725C90.0154 33.9174 89.612 33.7807 89.3621 33.5077C89.1316 33.2346 89.0164 32.8021 89.0164 32.2104V23.6074C89.0164 22.9246 88.8915 22.4354 88.6418 22.1395C88.392 21.8437 87.9981 21.6957 87.4603 21.6957C86.8839 21.6957 86.4228 21.8778 86.077 22.2418C85.7505 22.606 85.5872 23.1067 85.5872 23.7441V32.2104C85.5872 32.8021 85.4719 33.2346 85.2415 33.5077C85.0301 33.7807 84.6458 33.9174 84.0887 33.9174H81.2936ZM105.052 34.4293C102.362 34.4293 100.288 33.6896 98.8275 32.2104C97.3675 30.7311 96.6374 28.5804 96.6374 25.7581C96.6374 24.0286 96.9737 22.5037 97.646 21.1837C98.3184 19.8636 99.2886 18.8394 100.557 18.1111C101.844 17.3829 103.361 17.0187 105.11 17.0187C106.435 17.0187 107.549 17.1667 108.452 17.4625C109.374 17.7584 110.191 18.2135 110.902 18.8281C111.113 18.9876 111.219 19.1923 111.219 19.4426C111.219 19.6247 111.142 19.8636 110.988 20.1595L109.807 22.5832C109.672 22.902 109.509 23.0613 109.317 23.0613C109.201 23.0613 109.019 22.9702 108.769 22.7881C108.251 22.4013 107.761 22.1169 107.3 21.9348C106.858 21.7526 106.301 21.6616 105.628 21.6616C104.668 21.6616 103.89 22.0258 103.294 22.754C102.718 23.4822 102.43 24.4836 102.43 25.7581C102.43 27.0555 102.727 28.0569 103.323 28.7623C103.919 29.4451 104.735 29.7865 105.772 29.7865C106.387 29.7865 106.944 29.6841 107.444 29.4792C107.943 29.2745 108.452 28.99 108.971 28.6258C109.24 28.4437 109.432 28.3526 109.547 28.3526C109.72 28.3526 109.874 28.5119 110.008 28.8307L111.305 31.4593C111.401 31.6869 111.449 31.869 111.449 32.0054C111.449 32.2104 111.334 32.4038 111.104 32.5859C110.297 33.2004 109.413 33.6555 108.452 33.9515C107.511 34.2701 106.377 34.4293 105.052 34.4293ZM118.756 34.4293C116.95 34.4293 115.499 33.7465 114.404 32.3812C113.329 30.9928 112.79 29.047 112.79 26.5433C112.79 24.6316 113.156 22.9587 113.886 21.5249C114.635 20.0911 115.682 18.9873 117.027 18.2135C118.391 17.417 119.956 17.0187 121.724 17.0187C123.184 17.0187 124.471 17.2121 125.585 17.5992C126.719 17.9632 127.756 18.498 128.697 19.2036V32.859C128.697 33.2915 128.63 33.576 128.496 33.7124C128.361 33.8491 128.092 33.9174 127.689 33.9174H124.75C124.538 33.9174 124.375 33.8832 124.26 33.8148C124.144 33.7239 124.048 33.5873 123.971 33.4051L123.597 32.3812C123.04 33.0866 122.367 33.5988 121.58 33.9174C120.811 34.2588 119.87 34.4293 118.756 34.4293ZM120.917 29.7865C121.666 29.7865 122.252 29.5702 122.675 29.138C123.097 28.7056 123.309 28.091 123.309 27.2943V21.9689C122.944 21.7639 122.483 21.6616 121.925 21.6616C120.907 21.6616 120.091 22.0825 119.476 22.9246C118.881 23.7667 118.583 24.9502 118.583 26.4751C118.583 28.6827 119.361 29.7865 120.917 29.7865ZM146.799 32.62C146.933 32.8021 147.001 33.007 147.001 33.2346C147.001 33.4393 146.943 33.6101 146.828 33.7465C146.713 33.8604 146.559 33.9174 146.367 33.9174H141.9C141.631 33.9174 141.429 33.8945 141.295 33.8491C141.18 33.7807 141.055 33.6555 140.92 33.4736L137.001 27.1579V32.2104C137.001 32.8021 136.886 33.2346 136.656 33.5077C136.425 33.7807 136.031 33.9174 135.474 33.9174H132.679C132.122 33.9174 131.728 33.7807 131.497 33.5077C131.286 33.2346 131.18 32.8021 131.18 32.2104V12.4443C131.18 11.8523 131.296 11.4199 131.526 11.1469C131.757 10.851 132.141 10.703 132.679 10.703H135.474C136.031 10.703 136.425 10.851 136.656 11.1469C136.886 11.4199 137.001 11.8523 137.001 12.4441V23.8806L140.805 18.0088C140.92 17.8267 141.045 17.7015 141.18 17.6333C141.314 17.5648 141.516 17.5307 141.785 17.5307H146.252C146.444 17.5307 146.588 17.5992 146.684 17.7356C146.799 17.8495 146.857 18.0088 146.857 18.2135C146.857 18.4412 146.789 18.6459 146.655 18.8281L141.727 25.5193L146.799 32.62ZM156.156 34.4293C154.542 34.4293 153.101 34.1108 151.833 33.4736C150.585 32.8362 149.595 31.8803 148.865 30.606C148.135 29.3314 147.77 27.7724 147.77 25.929C147.77 23.0385 148.462 20.8308 149.845 19.3059C151.228 17.781 153.217 17.0187 155.81 17.0187C158.346 17.0187 160.267 17.7697 161.573 19.2718C162.899 20.7513 163.562 22.811 163.562 25.4509C163.562 26.5889 163.139 27.1579 162.294 27.1579H153.245C153.245 28.1364 153.553 28.8877 154.168 29.411C154.801 29.9345 155.752 30.1961 157.02 30.1961C157.808 30.1961 158.461 30.1166 158.98 29.9573C159.518 29.7752 160.056 29.5135 160.594 29.1721C160.824 29.0583 160.978 29.0013 161.055 29.0013C161.228 29.0013 161.372 29.138 161.487 29.411L162.467 31.5958C162.563 31.8236 162.611 31.9941 162.611 32.108C162.611 32.3127 162.495 32.5063 162.265 32.6882C161.477 33.3028 160.584 33.7465 159.585 34.0197C158.586 34.2929 157.443 34.4293 156.156 34.4293ZM158.375 23.7782C158.375 22.9133 158.163 22.2418 157.741 21.7639C157.318 21.2861 156.684 21.047 155.839 21.047C154.994 21.047 154.35 21.2974 153.908 21.7981C153.466 22.2762 153.245 22.9361 153.245 23.7782H158.375ZM173.439 34.4293C171.825 34.4293 170.298 34.2359 168.857 33.8491C167.416 33.4393 166.254 32.8703 165.37 32.1421C165.043 31.8918 164.88 31.6299 164.88 31.357C164.88 31.1749 164.938 30.9815 165.053 30.7765L166.465 28.1138C166.619 27.8407 166.772 27.7042 166.926 27.7042C167.022 27.7042 167.185 27.7837 167.416 27.943C168.127 28.4211 168.934 28.8079 169.837 29.1037C170.739 29.3996 171.633 29.5476 172.517 29.5476C173.419 29.5476 174.082 29.3884 174.505 29.0696C174.947 28.751 175.168 28.239 175.168 27.5334C175.168 26.8506 174.927 26.3158 174.447 25.929C173.986 25.5419 173.112 25.0528 171.825 24.461C169.885 23.5961 168.367 22.6289 167.272 21.559C166.196 20.4668 165.658 18.9873 165.658 17.1211C165.658 14.868 166.34 13.1497 167.704 11.9662C169.068 10.7825 170.883 10.191 173.151 10.191C174.726 10.191 176.071 10.3616 177.185 10.703C178.318 11.0218 179.279 11.5225 180.066 12.205C180.393 12.501 180.556 12.7742 180.556 13.0245C180.556 13.1838 180.499 13.3657 180.383 13.5706L178.971 16.2336C178.799 16.5065 178.645 16.6432 178.51 16.6432C178.414 16.6432 178.251 16.5634 178.021 16.4042C176.906 15.5393 175.581 15.107 174.044 15.107C173.218 15.107 172.584 15.2663 172.142 15.5849C171.7 15.9035 171.479 16.427 171.479 17.1552C171.479 17.6559 171.594 18.0657 171.825 18.3843C172.055 18.7029 172.363 18.9873 172.747 19.2377C173.151 19.4652 173.765 19.7612 174.591 20.1254L175.139 20.3642C176.56 21.0244 177.675 21.6616 178.482 22.2762C179.308 22.8677 179.932 23.6074 180.355 24.4951C180.777 25.3598 180.989 26.4522 180.989 27.7724C180.989 29.798 180.345 31.4139 179.058 32.62C177.79 33.8263 175.917 34.4293 173.439 34.4293ZM187.111 33.9174C186.823 33.9174 186.603 33.8604 186.449 33.7465C186.295 33.6329 186.179 33.4051 186.103 33.0637L182.385 18.3159C182.347 18.1794 182.328 18.077 182.328 18.0088C182.328 17.6902 182.52 17.5307 182.904 17.5307H186.707C186.958 17.5307 187.139 17.5876 187.255 17.7013C187.371 17.7926 187.448 17.9516 187.485 18.1794L189.041 25.929L191.001 19.6814C191.098 19.4085 191.194 19.2264 191.289 19.1353C191.405 19.0215 191.598 18.9647 191.867 18.9647H193.681C193.95 18.9647 194.133 19.0215 194.229 19.1353C194.345 19.2262 194.449 19.4085 194.547 19.6814L196.477 25.929L198.062 18.1794C198.119 17.9519 198.195 17.7926 198.292 17.7015C198.388 17.5876 198.562 17.5309 198.81 17.5309H202.644C203.027 17.5309 203.22 17.6902 203.22 18.0088C203.22 18.077 203.201 18.1794 203.162 18.3159L199.416 33.0637C199.34 33.4051 199.224 33.6329 199.07 33.7465C198.936 33.8604 198.724 33.9174 198.436 33.9174H195.613C195.343 33.9174 195.141 33.8604 195.007 33.7465C194.872 33.6101 194.758 33.3825 194.661 33.0637L192.759 26.8847L190.857 33.0637C190.78 33.3825 190.664 33.6101 190.511 33.7465C190.376 33.8604 190.176 33.9174 189.907 33.9174H187.111ZM210.525 34.4293C208.718 34.4293 207.269 33.7465 206.173 32.3812C205.098 30.9928 204.559 29.047 204.559 26.5433C204.559 24.6316 204.924 22.9587 205.655 21.5249C206.403 20.0911 207.45 18.9873 208.795 18.2135C210.16 17.417 211.725 17.0187 213.492 17.0187C214.953 17.0187 216.239 17.2121 217.354 17.5992C218.487 17.9632 219.525 18.498 220.466 19.2036V32.859C220.466 33.2915 220.398 33.576 220.264 33.7124C220.129 33.8491 219.862 33.9174 219.458 33.9174H216.518C216.307 33.9174 216.144 33.8832 216.028 33.8148C215.912 33.7239 215.817 33.5873 215.74 33.4051L215.366 32.3812C214.809 33.0866 214.136 33.5988 213.348 33.9174C212.58 34.2588 211.639 34.4293 210.525 34.4293ZM212.686 29.7865C213.434 29.7865 214.022 29.5702 214.444 29.138C214.867 28.7056 215.078 28.091 215.078 27.2943V21.9689C214.712 21.7639 214.252 21.6616 213.694 21.6616C212.675 21.6616 211.86 22.0825 211.244 22.9246C210.65 23.7667 210.351 24.9502 210.351 26.4751C210.351 28.6827 211.13 29.7865 212.686 29.7865ZM224.447 40.8133C223.89 40.8133 223.497 40.6769 223.265 40.4037C223.054 40.1305 222.949 39.6981 222.949 39.1063V19.545C223.813 18.8168 224.9 18.2135 226.205 17.7356C227.512 17.2578 228.875 17.0187 230.297 17.0187C236.1 17.0187 239 19.932 239 25.7581C239 28.3983 238.385 30.5034 237.156 32.0739C235.926 33.6442 234.188 34.4293 231.941 34.4293C231.307 34.4293 230.691 34.3383 230.095 34.1562C229.519 33.9743 229.038 33.7239 228.655 33.4051V39.1063C228.655 39.6981 228.539 40.1305 228.309 40.4037C228.079 40.6769 227.684 40.8133 227.127 40.8133H224.447ZM230.701 29.8206C231.527 29.8206 232.142 29.4566 232.545 28.7282C232.967 27.9771 233.178 26.9757 233.178 25.724C233.178 24.2448 232.93 23.2091 232.43 22.6173C231.95 22.003 231.2 21.6957 230.183 21.6957C229.528 21.6957 229.01 21.7981 228.627 22.003V27.431C228.627 28.2049 228.808 28.7966 229.173 29.2062C229.539 29.6159 230.048 29.8206 230.701 29.8206Z" fill="white"/>
<path fill-rule="evenodd" clip-rule="evenodd" d="M4.75894 39.6558C7.83145 42.4432 12.2291 43.9951 17.6882 44H17.7157C23.1748 43.9951 27.5724 42.4432 30.6449 39.6558C33.7545 36.8349 35.4039 32.8316 35.4039 28.3017C35.4039 23.9371 33.758 20.7898 31.8956 18.6626C30.4362 16.9952 28.8255 15.9276 27.7041 15.3133C27.9576 14.3912 28.2741 13.1842 28.5572 11.9374C28.9359 10.2692 29.3076 8.31163 29.3076 6.87736C29.3076 5.17968 28.9952 3.47446 28.1527 2.14963C27.2625 0.749923 25.9226 0 24.3105 0C23.0506 0 21.9811 0.553858 21.1437 1.50871C20.3431 2.42169 19.8105 3.63397 19.4427 4.89787C18.7962 7.11862 18.5447 9.90873 18.474 12.6933H16.9299C16.8594 9.90873 16.6077 7.11862 15.9614 4.89787C15.5935 3.63397 15.0606 2.42147 14.2602 1.50871C13.4229 0.553636 12.3533 0 11.0934 0C9.48141 0 8.14132 0.749923 7.25117 2.14963C6.40871 3.47446 6.09641 5.17968 6.09641 6.87736C6.09641 8.31163 6.46799 10.2692 6.84668 11.9374C7.12981 13.1842 7.44622 14.3912 7.6998 15.3133C6.57832 15.9276 4.96783 16.9952 3.50824 18.6623C1.64584 20.7898 0 23.9371 0 28.3017C0 32.8316 1.64958 36.8349 4.75894 39.6558ZM11.5434 29.3932C12.5921 29.3932 13.4422 28.272 13.4422 26.119C13.4422 23.9661 12.5921 22.8448 11.5434 22.8448C10.4947 22.8448 9.64452 23.9661 9.64452 26.119C9.64452 28.272 10.4947 29.3932 11.5434 29.3932ZM23.886 29.3932C24.9347 29.3932 25.7849 28.272 25.7849 26.119C25.7849 23.9661 24.9347 22.8448 23.886 22.8448C22.8373 22.8448 21.9871 23.9661 21.9871 26.119C21.9871 28.272 22.8373 29.3932 23.886 29.3932ZM17.7145 39.3804C10.0251 39.3804 1.56234 34.4544 1.54907 28.0777V28.1074C1.54907 36.0014 7.23313 41.9519 17.7145 41.9519C28.1958 41.9519 33.8799 36.0014 33.8799 28.1074V28.0777C33.8666 34.4544 25.4038 39.3804 17.7145 39.3804Z" fill="white"/>
</svg>
